<?xml version="1.0" encoding="utf-8"?>
<!-- Generator: Adobe Illustrator 19.1.1, SVG Export Plug-In . SVG Version: 6.00 Build 0)  -->
<svg version="1.1" id="Calque_1" xmlns="http://www.w3.org/2000/svg" xmlns:xlink="http://www.w3.org/1999/xlink" x="0px" y="0px"
	 viewBox="1457 -700 3500 2300" style="enable-background:new 1457 -700 3500 2300;" xml:space="preserve">
<style type="text/css">
	.st0{fill:#E71467;}
	.st1{fill:#B0D4FF;}
	.st2{fill:#95C0F4;}
	.st3{fill:#CAE5FF;}
	.st4{fill:#004A99;}
	.st5{fill:#FFFFFF;}
	.st6{fill:#FFA412;}
	.st7{fill:#EEF6FF;}
	.st8{fill:#78ACEA;}
	.st9{fill:#BAE8E3;}
	.st10{fill:#A1D6CE;}
	.st11{fill:#F99746;}
	.st12{fill:#C0D8FB;}
	.st13{fill:#B7D3F3;}
	.st14{fill:#FFB27D;}
	.st15{fill:#233862;}
	.st16{fill:#A9453D;}
	.st17{fill:#ED975D;}
	.st18{fill:#2A4E96;}
	.st19{fill:#5F9AA8;}
	.st20{fill:#FFFC00;}
	.st21{fill:#1E3D70;}
	.st22{fill:#D3CE11;}
	.st23{fill:#163560;}
	.st24{fill:#B0D0FF;}
	.st25{fill:#98BAF4;}
	.st26{fill:#E8945B;}
	.st27{fill:#EBF3FA;}
	.st28{fill:#F2CCAA;}
	.st29{fill:#B5453C;}
	.st30{fill:#2B478B;}
	.st31{fill:#EBF3FF;}
	.st32{fill:#ED7D2B;}
	.st33{fill:#213F7A;}
	.st34{fill:#E2915A;}
</style>
<g>
	<path class="st0" d="M1627.7,1276.5c0.2,0.1,3173.4-0.4,3173.4-0.4c104.5-222.8,104.3-331.7,116.2-459.4
		c65.6-706-466.1-814.5-621.9-843.9c-477-90.1-259.9-536.1-1502.8-452.4c-113.9,7.7-382.5,69.6-475.1,109.7
		c-64.9,28-309.5,153.8-381.3,366.5c-22.7,67.2-28.1,143-5.3,227.1c80.9,297.8-130,280.7-284.1,422.6
		C1441.2,835.7,1462.7,1145.5,1627.7,1276.5z"/>
	<g>
		<g>
			<path class="st1" d="M3517.9,1276.3h0.4c2.6,0,4.6-2.1,4.6-4.7l-6.9-300l-20.4-2.4l17.4,302.4
				C3513.1,1274.2,3515.2,1276.3,3517.9,1276.3z"/>
		</g>
		<g>
			<path class="st2" d="M3636.7,1276.3h0.4c2.6,0,4.6-2.1,4.6-4.7l-6.9-300l-20.4-2.4l17.4,302.4
				C3631.9,1274.2,3634.1,1276.3,3636.7,1276.3z"/>
		</g>
		<g>
			<path class="st1" d="M3308.8,1276.3h-0.4c-2.6,0-4.6-2.1-4.6-4.7l6.9-300l20.4-2.4l-17.4,302.4
				C3313.6,1274.2,3311.4,1276.3,3308.8,1276.3z"/>
		</g>
		<path class="st1" d="M3650.2,953V747.4c0-36.2-29.3-65.5-65.5-65.5h-148.1c-36.2,0-65.5,29.3-65.5,65.5v213.5L3650.2,953z"/>
		<path class="st2" d="M3344.5,985.4h290.1c8.6,0,15.6-7,15.6-15.6V953h-305.7L3344.5,985.4L3344.5,985.4z"/>
		<path class="st3" d="M3304.2,985.4h228.4c4.7,0,8.5-3.8,8.5-8.5v-15.4c0-4.7-3.8-8.5-8.5-8.5h-228.4c-4.7,0-8.5,3.8-8.5,8.5v15.4
			C3295.7,981.6,3299.5,985.4,3304.2,985.4z"/>
	</g>
	<g>
		<rect x="2954.9" y="-129.2" class="st2" width="853.9" height="737.2"/>
		<g>
			<rect x="2971.2" y="-116.9" class="st4" width="821.1" height="710.2"/>
			<g>
				<polygon class="st5" points="3258.1,192.1 3078.2,192.1 3078.2,-32.6 3108.7,-60.1 3258.1,-60.1 				"/>
				<polygon class="st1" points="3078.2,-32.6 3107.7,-32.6 3108.7,-60.1 				"/>
				<rect x="3139.4" y="-38.2" class="st1" width="57.6" height="2.7"/>
				<rect x="3125.8" y="-30" class="st1" width="84.7" height="2.7"/>
				<rect x="3099.5" y="22.9" class="st1" width="140.7" height="3.5"/>
				<rect x="3099.5" y="33.6" class="st1" width="140.7" height="3.5"/>
				<rect x="3099.5" y="44.3" class="st1" width="140.7" height="3.5"/>
				<rect x="3099.5" y="55" class="st1" width="140.7" height="3.5"/>
				<rect x="3099.5" y="169.7" class="st1" width="140.7" height="3.5"/>
			</g>
			<g>
				<polygon class="st5" points="3465.9,503.8 3286,503.8 3286,279.2 3316.5,251.7 3465.9,251.7 				"/>
				<polygon class="st1" points="3286,279.2 3315.5,279.2 3316.5,251.7 				"/>
				<rect x="3347.1" y="273.5" class="st1" width="57.6" height="2.7"/>
				<rect x="3333.6" y="281.8" class="st1" width="84.7" height="2.7"/>
				<rect x="3307.3" y="334.6" class="st1" width="140.7" height="3.5"/>
				<rect x="3307.3" y="345.3" class="st1" width="140.7" height="3.5"/>
				<rect x="3307.3" y="356" class="st1" width="140.7" height="3.5"/>
				<rect x="3307.3" y="366.7" class="st1" width="140.7" height="3.5"/>
				<rect x="3307.3" y="399.7" class="st1" width="140.7" height="3.5"/>
				<rect x="3307.3" y="410.4" class="st1" width="140.7" height="3.5"/>
				<rect x="3307.3" y="422.8" class="st1" width="140.7" height="3.5"/>
			</g>
			<g>
				<rect x="3468.1" y="-60.1" class="st1" width="99.4" height="87.6"/>
				<circle class="st6" cx="3517.7" cy="-49.6" r="4.3"/>
			</g>
			<g>
				
					<rect x="3467.9" y="58.4" transform="matrix(0.9976 -6.963848e-002 6.963848e-002 0.9976 1.4238 245.2099)" class="st5" width="99.4" height="87.6"/>
				<circle class="st1" cx="3515.8" cy="74.3" r="4.3"/>
			</g>
			<g>
				
					<rect x="3137.8" y="381" transform="matrix(0.9976 -6.963723e-002 6.963723e-002 0.9976 -21.8467 223.0026)" class="st5" width="99.4" height="87.6"/>
				<circle class="st1" cx="3185.6" cy="397" r="4.3"/>
			</g>
			<g>
				
					<rect x="3010.5" y="441.2" transform="matrix(0.9999 -1.025597e-002 1.025597e-002 0.9999 -4.8128 31.4111)" class="st5" width="99.4" height="87.6"/>
				<circle class="st1" cx="3059.9" cy="457" r="4.3"/>
			</g>
			<g>
				
					<rect x="3608.3" y="116.1" transform="matrix(0.9844 0.1759 -0.1759 0.9844 85.1591 -640.9534)" class="st7" width="99.4" height="87.6"/>
				<circle class="st8" cx="3663.7" cy="128.4" r="3.8"/>
			</g>
			<g>
				
					<rect x="3315.1" y="58.4" transform="matrix(0.9942 -0.1076 0.1076 0.9942 8.538 362.6413)" class="st7" width="99.4" height="87.6"/>
				<circle class="st8" cx="3361.4" cy="70.5" r="3.8"/>
			</g>
			<g>
				
					<rect x="3062.4" y="269.7" transform="matrix(0.978 -0.2085 0.2085 0.978 3.0411 655.7822)" class="st9" width="99.4" height="87.6"/>
				<circle class="st6" cx="3105.5" cy="282.3" r="3.8"/>
			</g>
			<g>
				<g>
					<polygon class="st5" points="3412.1,27.5 3317.5,27.5 3317.5,-36 3343.7,-60.1 3412.1,-60.1 					"/>
					<polygon class="st1" points="3317,-36 3342.8,-36 3343.7,-60.1 					"/>
				</g>
				<circle class="st1" cx="3368.3" cy="-52" r="3.1"/>
			</g>
			<g>
				<g>
					<polygon class="st5" points="3688.4,547.6 3593.8,547.6 3593.8,484.1 3620,460 3688.4,460 					"/>
					<polygon class="st1" points="3593.3,484.1 3619.1,484.1 3620,460 					"/>
				</g>
				<circle class="st1" cx="3644.5" cy="468.1" r="3.1"/>
			</g>
			<g>
				<g>
					<polygon class="st5" points="3731.5,421.5 3636.9,421.5 3636.9,358 3663.1,333.9 3731.5,333.9 					"/>
					<polygon class="st1" points="3636.4,358 3662.3,358 3663.1,333.9 					"/>
				</g>
				<circle class="st1" cx="3687.7" cy="342" r="3.1"/>
			</g>
			<g>
				<g>
					<polygon class="st9" points="3606.7,421.5 3512.1,421.5 3512.1,358 3538.3,333.9 3606.7,333.9 					"/>
					<polygon class="st10" points="3511.6,358 3537.5,358 3538.3,333.9 					"/>
				</g>
				<circle class="st11" cx="3562.9" cy="342" r="3.1"/>
			</g>
			<g>
				<g>
					<polygon class="st9" points="3758.2,5.6 3663.6,5.6 3663.6,-57.9 3689.8,-82 3758.2,-82 					"/>
					<polygon class="st10" points="3663.1,-57.9 3688.9,-57.9 3689.8,-82 					"/>
				</g>
				<circle class="st11" cx="3714.4" cy="-73.9" r="3.1"/>
			</g>
		</g>
	</g>
	<g>
		<path class="st12" d="M2826.2-147h-186c-6.6,0-11.9-5.4-11.9-11.9v-179.8c0-6.6,5.4-11.9,11.9-11.9h186c6.6,0,11.9,5.4,11.9,11.9
			v179.8C2838.1-152.4,2832.7-147,2826.2-147z"/>
		<path class="st4" d="M2818.1-155.8h-169.9c-6,0-10.9-4.9-10.9-10.9v-164.2c0-6,4.9-10.9,10.9-10.9h169.9c6,0,10.9,4.9,10.9,10.9
			v164.2C2829-160.7,2824.1-155.8,2818.1-155.8z"/>
		<g>
			<g>
				<circle class="st13" cx="2733.2" cy="-323.2" r="4.3"/>
				<circle class="st13" cx="2767.7" cy="-315" r="4.3"/>
				<circle class="st13" cx="2796.3" cy="-289.5" r="4.3"/>
				<circle class="st13" cx="2808.8" cy="-251.9" r="4.3"/>
				<circle class="st13" cx="2798.2" cy="-210.3" r="4.3"/>
				<circle class="st13" cx="2770.9" cy="-182.9" r="4.3"/>
				<circle class="st13" cx="2733.2" cy="-171.9" r="4.3"/>
			</g>
			<g>
				<circle class="st13" cx="2698.5" cy="-315" r="4.3"/>
				<circle class="st13" cx="2669.9" cy="-289.5" r="4.3"/>
				<circle class="st13" cx="2657.3" cy="-251.9" r="4.3"/>
				<circle class="st13" cx="2668" cy="-210.3" r="4.3"/>
				<circle class="st13" cx="2695.3" cy="-182.9" r="4.3"/>
			</g>
		</g>
		<g>
			<circle class="st13" cx="2736.3" cy="-251.9" r="4.3"/>
			<g>
				<rect x="2735.7" y="-306.2" class="st13" width="1.2" height="54.3"/>
			</g>
			<g>
				
					<rect x="2748.4" y="-281.6" transform="matrix(-0.6176 -0.7865 0.7865 -0.6176 4655.8433 1737.197)" class="st13" width="3.6" height="36.6"/>
			</g>
		</g>
	</g>
	<g>
		<g>
			<path class="st14" d="M3930.4,1265.5c-0.9,11.7-17.3,11.8-36,9.6c-18.7-2.2-13.7,2.6-39.9,2.9c-26.2,0.4-35.2-8.3-36.5-12
				c-1.1-3.3,11.5-6.1,25-9.4c1.7-0.4,3.4-0.8,5.1-1.3c15.2-3.9,25.3-15.3,38.3-25.2c12.3-9.4,28.2-43.5,28.2-43.5l35.8-1.6
				c0,0-15.1,30.6-20.7,43.7c-3.3,7.7-1.9,17.3-0.5,24.6C3929.9,1257.4,3930.7,1261.4,3930.4,1265.5z"/>
			<path class="st15" d="M3894.3,1275.2c-18.7-2.2-13.7,2.6-39.9,2.9c-26.2,0.4-35.2-8.3-36.5-12c-1.1-3.3,11.5-6.1,25-9.4l0.2,0.2
				c0,0,16.9,9,38.4,6.9c17.6-1.8,35.5-9.1,47.6-10.4c0.8,4,1.5,8,1.2,12.2C3929.5,1277.2,3913,1277.4,3894.3,1275.2z"/>
		</g>
		<g>
			<path class="st14" d="M4177.4,1268c-0.8,11.7-17.3,11.8-36,9.7c-18.7-2.2-13.7,2.6-39.9,3c-26.2,0.4-35.2-8.3-36.5-12
				c-1.1-3.3,11.5-6.1,25-9.4c1.7-0.4,3.4-0.8,5.1-1.3c15.2-3.9,25.3-15.3,38.3-25.2c12.3-9.4,0-65.3,0-65.3l39.3-3.8
				c0,0-1.9,47-1.9,68.4c0,8.4,3.9,16.5,5.3,23.8C4177,1259.8,4177.7,1263.9,4177.4,1268z"/>
			<path class="st15" d="M4141.4,1277.6c-18.7-2.2-13.7,2.6-39.9,3c-26.2,0.4-35.2-8.3-36.5-12c-1.1-3.3,11.5-6.1,25-9.4l0.2,0.2
				c0,0,16.9,9,38.4,6.8c17.6-1.8,35.5-9.1,47.6-10.5c0.8,4,1.6,8,1.3,12.2C4176.6,1279.6,4160.1,1279.8,4141.4,1277.6z"/>
		</g>
		<path class="st16" d="M4062.6,303c-6.8-27.9,3-40.8,11.9-47.7c4.2-10.3,9-17.6,13.9-20.4c8.9-5.1,19.7-5.6,27.2-5.2
			c-1.9-2-5.7-2.7-5.7-2.7c4.6-0.7,15,3.9,15,3.9c64.7-24.9,74.8,70.3,73.5,92.4s-1.2,48.2,32.5,65.6
			c64.2,33.2-21.3,158.5-21.3,158.5c1.6-17.9-80.8-112.2-123.9-140.4c-10.5-15.4-14.2-42.7-14.5-44.8c1.8,21.6,5.5,33.7,8.8,40.5
			C4060.3,384.6,4057.4,341.3,4062.6,303z"/>
		<path class="st14" d="M4088.2,408.4c-0.2,0.1,20.8,11,36.6,6.7c14.9-4,24.6-23.3,24.3-23.3c-6.3-1.2-8.1-9.9-8-47l-2.8,0.6
			l-47.8,9.5c0,0,1.1,15,1.1,29.2C4091.6,395.8,4090.9,407.1,4088.2,408.4z"/>
		<path class="st17" d="M4090.4,354.7c0,0,1.1,15,1.1,29.2c26.7-0.8,40.9-25.2,46.7-38.7L4090.4,354.7z"/>
		<path class="st18" d="M3896,1205.6c-2.3,7.3,2.9,14.9,10.6,15.3l18.7,0.9l19.8,0.6c4.9,0.2,9.7-2,12.8-5.8
			c15.8-19.3,64.3-83.8,93.8-177.5c0.8-2.6,1.7-5.3,2.6-8c19.4-56.7,59.8-127.9,81-192.3c3.4-10.3,6.4-19.9,9.1-29.1
			c0.9-2.9,1.7-5.8,2.5-8.6c15.7-54.4,20.2-90.1,24.4-128.3l-153.4,1.2C4017.8,674,3985.5,925,3896,1205.6z"/>
		<path class="st5" d="M4039.3,585.8c0.4,73-10.7,104.3-10.7,104.3s65.7,33.4,143.8,8.8c0.9-0.3,64.6-14.8,64.6-14.8
			c-1.3-3-12.9-52.2-14.2-54.9c-16.5-35.4-29-50.9-31-61.8c-3.6-20.3-3.7-41.3-1.9-61.2c4.8-52.5,18.9-96.1,18.9-96.1
			c-21.3-4.8-41.2-13.3-63.3-21.6c-5.1,6.3-20.7,13-34.2,12.7c-15.6-0.3-20.6-7-19.8-14.3c-16.6,9.2-29.8,17.9-29.8,17.9
			c-14.1,24.5-42.6,48.2-44.7,85.8C4016.6,499.9,4039.3,583.8,4039.3,585.8z"/>
		<path class="st19" d="M4171.3,594c6.7,9.5,19.6,67.2,51.6,74.4c-16.5-41.1-29-59.1-31-71.8c-3.6-23.6-3.7-48-1.9-71
			c-10.7-18.8-18.7-31.6-18.7-31.6c-0.8-3-17-53.1-22.2-8.3C4143.9,530.3,4163.8,583.3,4171.3,594z"/>
		<path class="st14" d="M4081.5,368.1c0,0,63.3,1,63.3-38.4s8.2-65.8-32.2-68.2c-40.4-2.3-48.3,12.7-51.5,25.9
			C4058,300.6,4065.1,366.8,4081.5,368.1z"/>
		<path class="st16" d="M4083.9,260.6c0,0,17.3,46.3,43.9,53.1c26.6,6.8,38.1-0.3,38.1-0.3s-20.4-16.2-24.6-44.5
			C4141.3,268.9,4096.9,238.6,4083.9,260.6z"/>
		<path class="st16" d="M4088.2,264.3c0,0-12.9,10.3-16.1,20.4c-3.2,10-4.6,30.7-10.6,30c0,0-13.1-31.4,1.6-49.2
			C4078.6,246.6,4088.2,264.3,4088.2,264.3z"/>
		<polygon class="st14" points="3981.9,636.5 3952,727.6 3969.1,734.5 4018.5,653.9 		"/>
		<path class="st20" d="M4062.5,399.6c0,0-35.2,14-45.4,35.8s-25.6,168.1-31.8,183.1s-10.8,26.9-10.8,26.9s17.8,15,35.6,16.1
			S4062.5,399.6,4062.5,399.6z"/>
		<path class="st20" d="M4091.6,387c0,0-36.6,90.5-37.7,108.8c-1.1,18.3-4.3,299.4-4.3,299.4s2.2,12.9-22.6,7.5
			s-31.2-10.8-31.2-10.8s23.7-173.4,17.2-233.7c-6.5-60.3,49.5-158.7,49.5-158.7L4091.6,387z"/>
		<path class="st21" d="M3925.3,1221.8l21.5,0.7c3.8,0.1,7.5-1.5,10-4.5c14.4-17.5,64.7-82.8,94.9-178.9c0.8-2.6,1.7-5.3,2.6-8
			c19.4-56.7,59.8-127.9,81-192.3c3.4-10.3,6.4-19.9,9.1-29.1c0.9-2.9,1.7-5.8,2.5-8.6l-22.6-17.1c0,0-67.8,109.8-88.8,213.2
			C4017.2,1086.9,3944.2,1194.9,3925.3,1221.8z"/>
		<path class="st18" d="M4121.9,1006.7c-0.4,47.6,1.9,153.5,7.7,205.4c0.5,4.7,4.5,8.3,9.3,8.3h16c6.7,0,11.8,0,15.1-0.1
			c2.9,0,5.4-2.1,5.9-5c15.9-81,27.3-148.3,35.7-206.5c7-48.7,13.2-90.4,18-126.3c4.8-36.2,8.1-66.4,9.3-92c0.2-4,0.3-7.9,0.4-11.7
			c0.1-3.8,0.1-7.5,0.1-11.1l-132.6-12.9C4108.5,842.8,4122.2,977.5,4121.9,1006.7z"/>
		<path class="st21" d="M4154.9,1220.4c6.1,0,10.8,0,14.1-0.1c3.5,0,6.5-2.6,7.2-6c15.8-80.5,27.1-147.5,35.4-205.4
			c7-48.7,13.2-90.4,18-126.3c4.8-36.2,8.1-66.4,9.3-92l-48.6,28.6c0,0,31,11,19.2,93.9S4171.4,1208.7,4154.9,1220.4z"/>
		<path class="st20" d="M4148.7,789.7c0,0,9.3,33.7,41.6,29.4c32.3-4.3,78.2-23.7,78.2-23.7s-13.8-43.6-31-100.9
			c-20.8-69.4-46.5-158.8-58.6-215.2c-3.4-15.8-5.7-29-6.6-38.5l-26.8-52c0,0-40,89.7-42.1,112.3
			C4101.3,523.8,4148.7,789.7,4148.7,789.7z"/>
		<path class="st14" d="M4180.9,497.8l-35.4-108.9c0.1,0,44.7,13.3,67.1,24.6c0,0,14,18.1,22.7,59.8c0,0,9.2,100.1-11.3,136.7
			c0,0-64.6,12.9-168-22.6v-23.7c0,0,113.1,5.9,136.2,8.6L4180.9,497.8z"/>
		<path class="st22" d="M4150.1,548.5c1.4,36.6,10.1,107.7,86.9,145.7c0.2,0.1,0.4,0.2,0.6,0.3c-20.8-69.4-46.5-158.8-58.6-215.2
			C4164.8,500.4,4149.3,528.4,4150.1,548.5z"/>
		<path class="st20" d="M4145.6,388.8c0,0,65.6,4.6,81.4,39.8c15.8,35.2,20.8,152.2,0.7,186.7c0,0-27.7,7.9-76.6-1.3
			c-0.6-0.1-1.2-0.2-1.8-0.3c0,0-15.6-38.2-1.6-45.8c0,0,41.3,2.2,37-11.5C4180.3,542.8,4145.6,388.8,4145.6,388.8z"/>
		<g>
			<path class="st16" d="M3981.1,578.2l1.9,6.2l107.6-33.5c0,0,1.4-1.6,0.7-3.8c-0.8-2.4-2.7-2.4-2.7-2.4L3981.1,578.2z"/>
			<polygon class="st16" points="3973.4,584.1 3981.1,578.2 3983.1,584.4 			"/>
		</g>
		<path class="st14" d="M3956.3,725.1c0,0-27.3,15.1-30.9,26.6c-3.6,11.5-1.1,35.6,3.2,35.2s10.8-25.9,14.4-27.7s8.6-7.2,8.6-3.2
			s-3.6,11.1-1.8,12.2s7.5-10.1,11.5-12.2c4-2.2,5.6-19.9,9.5-24.7C3974.6,726.6,3956.3,725.1,3956.3,725.1z"/>
		<path class="st14" d="M4056.1,563.6c0,0-24.4-15-34.7-12.7c-10.2,2.3-36.3,21.2-23.8,25.3s22.7-0.2,27.5,2.8s8.4,8.4,30.9,8.3
			C4078.6,587.2,4056.1,563.6,4056.1,563.6z"/>
	</g>
	<g>
		<path class="st23" d="M2136.3,402.1c-4.1-7.9,89.3-36.3,90.8,41.6c0,0,174.9-4.3,91.4-101.8c-28.9-33.7-25.9-61.7-25.1-87.6
			c0.9-26-18-101.5-82.7-93.9c0,0-17-6.9-38.1,4.1C2124.4,189.4,2016.6,430.8,2136.3,402.1z"/>
		<path class="st14" d="M2422.3,489.2c0,0,11.4-17.3,20.6-17.7c9.2-0.3,26.2-5.1,24.8-1.7s-11.9,3.7-12.9,5.8
			c-1,2,15.6,5.1,20.4,5.4s16,0,15.6,2.4c-0.3,2.4-20.2,12.2-34.2,10.9c-14-1.4-31.4,4.1-31.4,4.1L2422.3,489.2z"/>
		<path class="st24" d="M2257.6,494.8c0,0,6.2,12.3,17.4,26.3c13.5,16.9,34.4,36.5,60.6,40.4c12.5,1.8,24.7-0.8,36-5.8l0,0
			c31.8-14.1,55.7-46.6,55.7-46.6c5.6-15.3-3.6-25.7-3.6-25.7s-64.2,14.4-70.3,11.4c-6.1-3.1-41.8-105.9-50.3-118.8
			s-37.5-19.6-37.5-19.6L2257.6,494.8z"/>
		<path class="st25" d="M2275,521.1c13.5,16.9,34.4,36.5,60.6,40.4c12.5,1.8,24.7-0.8,36-5.8c-1.2,0.2-33,4.1-45.7-18.6
			c-12.9-23.1-26.9-59.8-46.1-47.6C2271.6,494.8,2271.9,507.9,2275,521.1z"/>
		<path class="st15" d="M2018,1188.1c0,0-19.6,17.9-15.8,30.6c3.8,12.7,21.5,21.2,23.9,36.7c2.4,15.5,12,24,20.6,24c8.6,0,41,0,41,0
			s6.3-10.9-9-14.2c-15.3-3.3-21.1-21.5-20.1-38.5c1-16.9-1.4-39.5-1.4-39.5l-32.5-7.5L2018,1188.1z"/>
		<path class="st15" d="M2183.9,1195.7c0,0-7.1,75.8,1.6,80l110.1-0.2c0,0,0-12.7-17.7-15.5c-17.7-2.8-48.8-13.2-54-36.2
			C2218.6,1200.6,2183.9,1195.7,2183.9,1195.7z"/>
		<path class="st14" d="M2105.4,652.1c22.7-50.8,36.5-65.4,33.9-81.2c-2-11.7,6-218.9,6-218.9c2.7-0.8,8.1-1.6,11-2.2
			c9.3-2.1,17-8.6,20.2-17.6c3.9-10.8,6.9-26.8,6.9-46.7l2.9,0.6l48.8,9.7c0,0-1.1,15.4-1.1,29.8c0,0.1,0,0.2,0,0.4
			c-0.1,12.6,8.2,23.7,20.3,27.1c6.2,1.8,11.5,3.3,11.5,3.3s17.9,51.2,21.3,103.7c3.4,52.6-32.6,75.4,0.3,180.4
			C2320.9,747.8,2092.9,680.2,2105.4,652.1z"/>
		<path class="st26" d="M2235.1,295.7c0,0-1.1,15.4-1.1,29.8c-27.3-0.8-41.7-25.7-47.7-39.5L2235.1,295.7z"/>
		<path class="st14" d="M2244.2,309.4c0,0-64.6,1.1-64.7-39.2c0-40.3-8.4-67.2,32.8-69.6c41.3-2.4,49.3,13,52.6,26.4
			C2268.2,240.4,2261,308.1,2244.2,309.4z"/>
		<path class="st23" d="M2241.8,199.7c0,0-17.7,47.2-44.8,54.2c-27.2,7-38.9-0.3-38.9-0.3s20.8-16.5,25.1-45.4
			C2183.2,208.2,2228.4,177.2,2241.8,199.7z"/>
		<path class="st23" d="M2237.4,203.5c0,0,13.1,4.9,18.5,14.5c5.3,9.4,9.8,21.8,8.7,37c0,0,13.3-32.1-1.7-50.3
			C2247.1,185.4,2237.4,203.5,2237.4,203.5z"/>
		<path class="st27" d="M2230.1,284.5c0,0,4.5,5.9,13.4,5.4c7.2-0.3,10-6.6,10-6.6S2240.3,280.2,2230.1,284.5z"/>
		<path class="st24" d="M2099.2,443.7c0,0-1.6,23.1,0,50.9c1.1,18.4,19.7,43.1,22.3,49.1c6.6,15.3,14.1,17.8,14.1,17.8l57.8,14.2
			l20.3,5l64.1-19.1c0,0,29.2-81.5,17.5-127.4c-11.7-45.9-29.6-77.7-29.6-77.7s-52.3,51.2-120.4-4.3L2099.2,443.7z"/>
		<path class="st28" d="M2116.1,502.1c1.1,18.4,2.8,35.5,5.4,41.6c6.6,15.3,14.1,17.8,14.1,17.8l57.8,14.2l25.1-7.4
			c0,0-83.8-12.7-74.5-84.8L2116.1,502.1z"/>
		<path class="st22" d="M2273.8,573.9c0,0,31.7,98.8,33.8,132.5c2.1,33.7-60.7,477.9-63.2,493.4c-2.4,14.6-20.5,23.9-20.5,23.9
			s-8.3,4.9-20.3,1.6c-16.5-4.7-21.8-10.3-21.8-10.3s-24.7-316.9-9.4-430.1c15.3-113.2,15.5-211.1,15.5-211.1L2273.8,573.9
			L2273.8,573.9z"/>
		<path class="st20" d="M2139.3,570.9c0,0-48.4,65-52.9,108.9s-7.1,198.2-16.7,241c-9.6,42.8-45,125.2-45,258.8c0,0,3.7,7.7,15,11.7
			c3.6,1.3,8.5,2.6,13.2,3.7c9.4,2.1,19-2.4,23.2-11c23.9-48.1,100-203.3,103.9-235.5c2.8-22.8,26.8-173.6,79.2-262.1
			c12.6-21.2-7.7-105.8-7.7-105.8L2139.3,570.9z"/>
		<path class="st5" d="M2231.6,285.5c0,0,1.1,4.7,12.9,4c0,0,9.9-0.6,9.6-5.8C2254.1,283.7,2244.5,280,2231.6,285.5z"/>
		<path class="st15" d="M2278.9,558.6c0,0-12.7,10.1-38.1,10.6c-30.2,0.6-105.2-7.7-105.2-7.7s-3.3,9.3-3.2,19.1
			c0,0,91.5,23.1,144.6,3.4C2277,584,2283.8,571.1,2278.9,558.6z"/>
		<g>
			<path class="st5" d="M2234.3,579.6c0-8.6,6.2-15.6,13.8-15.6c7.6,0,13.8,7,13.8,15.6s-6.2,15.6-13.8,15.6
				C2240.4,595.3,2234.3,588.3,2234.3,579.6z M2238.8,579.6c0,6.1,4.1,11,9.2,11s9.2-5,9.2-11c0-6.1-4.1-11-9.2-11
				C2243,568.6,2238.8,573.6,2238.8,579.6z"/>
		</g>
		
			<rect x="2077.7" y="468" transform="matrix(0.7542 0.6567 -0.6567 0.7542 889.2335 -1269.2018)" class="st29" width="124.3" height="170.2"/>
		<path class="st14" d="M2156.8,576.8c0,0,34.4,4,34.2,12.2c-0.1,8.2-8.6,24.9-12.8,25.7c-4.2,0.7-28-22.7-28-22.7L2156.8,576.8z"/>
		<path class="st24" d="M2145.3,352c0,0-45.9,3.2-63.5,46c-17.6,42.7-50.9,114.5-50.9,126.6s18.6,49.3,118.7,70.7
			c0,0,10.4-10.9,9.7-19.5c0,0-62.5-53.7-62.3-59.9c0.3-11.9,10.2-27.5,65.1-82.4C2177,418.5,2145.3,352,2145.3,352z"/>
	</g>
	<g>
		<g>
			<g>
				<path class="st1" d="M2652.1,1277.1h-0.4c-2.6,0-4.6-2.1-4.6-4.7l6.9-300l20.4-2.4l-17.4,302.4
					C2656.8,1275,2654.7,1277.1,2652.1,1277.1z"/>
			</g>
			<g>
				<path class="st2" d="M2533.2,1277.1h-0.4c-2.6,0-4.6-2.1-4.6-4.7l6.9-300l20.4-2.4l-17.4,302.4
					C2538,1275,2535.8,1277.1,2533.2,1277.1z"/>
			</g>
			<g>
				<path class="st1" d="M2861.1,1277.1h0.4c2.6,0,4.6-2.1,4.6-4.7l-6.9-300l-20.4-2.4l17.4,302.4
					C2856.4,1275,2858.5,1277.1,2861.1,1277.1z"/>
			</g>
			<path class="st1" d="M2519.7,953.8V748.2c0-36.2,29.3-65.5,65.5-65.5h148.1c36.2,0,65.5,29.3,65.5,65.5v213.5L2519.7,953.8z"/>
			<path class="st2" d="M2825.4,986.2h-290.1c-8.6,0-15.6-7-15.6-15.6v-16.8h305.7L2825.4,986.2L2825.4,986.2z"/>
			<path class="st1" d="M2865.7,986.2h-228.4c-4.7,0-8.5-3.8-8.5-8.5v-15.4c0-4.7,3.8-8.5,8.5-8.5h228.4c4.7,0,8.5,3.8,8.5,8.5v15.4
				C2874.2,982.4,2870.4,986.2,2865.7,986.2z"/>
		</g>
		<g>
			<path class="st15" d="M2851.3,902.5c-21.2,36.9-47.9,51.2-47.9,51.2h-111C2692.3,953.7,2867.5,874.4,2851.3,902.5z"/>
			<g>
				<path class="st14" d="M2766,1188.3c-2.9,3.3-3.3,7-1.8,11c0,0,0,0,0,0.1c2.6,7.3,11.4,15.5,21.6,23.7c1.3,1,2.5,2,3.5,2.9
					c0.3,0.2,0.5,0.5,0.8,0.7c0.2,0.2,0.4,0.4,0.6,0.5c9.5,8.7,5.9,10.7,22.9,28.5c19.4,20.2,32.8,20.6,36.6,18.7
					c3.2-1.6-3.3-12.3-10.6-24.3c-0.4-0.6-0.7-1.2-1.1-1.8c-1-1.6-1.9-3.2-2.9-4.8c-8.5-14.5-6.3-21.3-4.3-42.9
					c1.6-17.5,27.3-97.9,27.3-97.9l-37.2-6.4c0,0-11.2,64-23.5,73.9c-6.6,5.3-14,5.3-20.3,9.2c-0.4,0.3-0.9,0.5-1.3,0.8
					C2772.6,1182.5,2768.9,1185,2766,1188.3z"/>
				<path class="st15" d="M2766,1188.3c-2.9,3.3-3.3,7-1.8,11c0,0,0,0,0,0.1c3.2,7.3,11.8,15.4,21.6,23.6c1.3,1.1,2.4,2,3.4,3
					c0.3,0.2,0.5,0.5,0.8,0.7c0.2,0.2,0.4,0.4,0.6,0.5c9.5,8.7,5.9,10.7,22.9,28.5c19.4,20.2,32.8,20.6,36.6,18.7
					c3.2-1.6-3.3-12.3-10.6-24.3c-3.8-1.4-21.3-8.5-34.6-25.5c-11.7-14.9-19.5-34.1-27.4-45.2c-0.4,0.3-0.9,0.5-1.3,0.8
					C2772.6,1182.5,2768.9,1185,2766,1188.3z"/>
				<path class="st14" d="M3066,1165.1c2.3,11.5,18.7,9.6,37,5.1s13.9,0.8,40-2c26-2.9,33.9-12.6,34.7-16.5
					c0.7-3.4-12.2-4.6-25.9-6.2c-1.7-0.2-3.5-0.4-5.2-0.6c-15.6-2-27-12-41.1-20.3c-13.4-7.8-33.4-39.7-33.4-39.7l-35.7,2.8
					c0,0,18.7,28.5,26,40.8c4.3,7.3,4,16.9,3.5,24.3C3065.4,1156.9,3065.2,1161,3066,1165.1z"/>
				<path class="st15" d="M3103,1170.2c18.3-4.5,13.9,0.8,40-2c26-2.9,33.9-12.6,34.7-16.5c0.7-3.4-12.2-4.6-25.9-6.2l-0.1,0.3
					c0,0-15.6,11.1-37.3,11.6c-17.7,0.4-36.4-4.6-48.6-4.4c-0.3,4-0.5,8.2,0.3,12.2C3068.3,1176.5,3084.7,1174.6,3103,1170.2z"/>
				<path class="st15" d="M2929.2,936.8l-33.4,89.8l-43.6,117.2c0,0-11.8,1.1-23.1-2.1c-10.4-3-22.4-10.9-22.4-10.9
					s12.1-125.9,34.7-198.2c5.8-18.5,12.3-33.6,19.4-42C2895.8,849.3,2929.2,936.8,2929.2,936.8z"/>
				<path class="st30" d="M2895.3,794.2c-21.9-7.1-84.2,2-146.9,14.3l-13.1-21.6L2600,776.3c0,0-44.6,99-20.2,162.1
					c3.6,9.3,10.7,15.2,22.9,15.4h2c0,0,80.5,0,106.7,0c67.3,0,142.4-46.3,152.1-48.2c15.9-3.2,22.3,28.6,38.2,62
					c15.9,33.4,149.5,147.9,149.5,147.9s20.5,0.2,29-3c9.1-3.4,12.5-7.9,12.5-7.9S2944.6,810.1,2895.3,794.2z"/>
				<path class="st15" d="M2730,392.9c-17.3-9.1-43.7-10.3-48-10.9c-51.3-6.9-82.1,67.6-83.9,90.2c-3.3,41.6-25.4,48-56.3,74
					c-62.1,52.2-43.9,113-9.9,135.5c20.4,13.5,56.3,0,56.3,0c0.5,0.4,98.2-54.6,146.4-81.2C2806.7,590.2,2774.1,416.1,2730,392.9z"
					/>
				<path class="st14" d="M2694.1,577.9c0.2,0.1-23.7,8.3-39.7,1.2c-15-6.6-26.4-31.4-26.2-31.4c6.8-0.3,14.4-6.3,20.1-45.6l2.9,1
					l49,17.6c0,0-3.6,15.7-5.8,30.7C2692.5,564.1,2691.4,576.1,2694.1,577.9z"/>
				<path class="st17" d="M2700.3,520.8c0,0-3.6,15.7-5.8,30.7c-28.1-5.1-39.2-33.1-43.2-48.3L2700.3,520.8z"/>
				<path class="st14" d="M2707.6,536.5c0,0-67-9-60.8-50.7c6.2-41.7,1.8-70.9,44.9-66.9s49,21.1,50.3,35.5
					C2743.2,468.8,2725.2,537.7,2707.6,536.5z"/>
				<path class="st15" d="M2739.5,431.6c0,0-42.9,37-72.1,40c-29.2,3-40.2-6.4-40.2-6.4s17.2-14.3,27.6-37.3
					c3.1-6.8,9.5-11.5,16.9-12.1C2692.4,413.9,2732,413.1,2739.5,431.6z"/>
				<path class="st15" d="M2712.6,428.3c0,0,14.4,13.9,18.9,24.2c4.4,9.9,5.7,33.7,2.2,43.1c0,0,22.4-43.5,9.7-64.6
					C2730,408.6,2712.6,428.3,2712.6,428.3z"/>
				<path class="st5" d="M2750.6,676.7c-2,135.7-0.6,107.3-15.4,120.2c-3.6,3.1-13.6,4.9-26.9,5.8c-41.6,2.8-114.8-4.1-117.5-11.8
					c-9.6-26.6-2.8-34.9-10.8-75.6c-0.8-4.3-1.9-9-3.1-14.1c-6.7-28-13.2-37.5,10.5-82.4c21.5-40.7,43.8-73.8,45.8-72.6
					c56.7,33.6,61.2,5.4,61.2,5.4S2751.6,610.5,2750.6,676.7z"/>
				<path class="st30" d="M2895.8,1026.6l-43.6,117.2c0,0-11.8,1.1-23.1-2.1c-10.4-3-22.4-10.9-22.4-10.9s12.1-125.9,34.7-198.2
					L2895.8,1026.6z"/>
				<path class="st5" d="M2694.4,551.5c0,0,58.3,9.9,65.2,35c6.8,25.1,47.1,172.7,47.1,172.7s-29.6,5.3-43.3-8.4
					c-13.7-13.7-47.7-127.1-47.7-127.1L2694.4,551.5z"/>
				<path class="st31" d="M2708.3,802.7c-41.6,2.8-114.8-4.1-117.5-11.8c-9.6-26.6-2.8-34.9-10.8-75.6l20.1-56.5
					c0,0-3.3,62.9,15.2,79.5s76,32,85,45.8C2704.6,790.7,2707.5,797.4,2708.3,802.7z"/>
				<path class="st14" d="M2660.6,776.3c0,0,41.1-9.1,47.7-5.5c6.6,3.6,22.8,16.9,24.8,21.5s-14.7-3.5-20.2-5
					c-3.5-0.9-12.8,2.3-17.4,3.8c-19.4,6.5-31.2,3.1-31.2,3.1L2660.6,776.3z"/>
				<path class="st5" d="M2633.1,546.2c0,0-55.1,3.4-74.2,30c-26.9,37.5-80.1,197.1-49.6,218.4c34.4,24,156.5,6.3,156.5,6.3
					s4.1-19-1.6-28.2c-5.7-9.2-97.5-24-101.8-28.3c-4.2-4.2,53-82.7,53-95.4C2615.5,636.2,2633.1,546.2,2633.1,546.2z"/>
				<path class="st14" d="M2710.3,782.2c0,0,8.6,11.1,11.4,12.4c2.8,1.3,4.6,1,4.6,1l-5.8-10.4L2710.3,782.2z"/>
				<path class="st14" d="M2708.3,770.8l25,12.1c0,0-1.1,1.7-4.1,1.6c-3.1-0.1-10.8-3-10.8-3L2708.3,770.8z"/>
			</g>
			<g>
				<g>
					<polygon class="st11" points="2721.7,811.6 2919.5,811.6 2979,663.6 2781.5,663.6 					"/>
					<polygon class="st32" points="2921.9,805.8 2660.6,805.8 2660.6,811.6 2919.5,811.6 					"/>
				</g>
				<path class="st5" d="M2869.6,737.6c1.5-5.2-1.5-9.4-6.7-9.4c-5.2,0-10.6,4.2-12.1,9.4c-1.5,5.2,1.5,9.4,6.7,9.4
					S2868.1,742.8,2869.6,737.6z"/>
			</g>
		</g>
	</g>
	<g>
		<g>
			<path class="st8" d="M3754.9,1282.6h0.6c3.4,0,6.1-3,6-6.5l-9.2-420.1l-27-3.3l23,423.5
				C3748.6,1279.7,3751.5,1282.6,3754.9,1282.6z"/>
		</g>
		<g>
			<path class="st8" d="M2661.6,1282.6h-0.6c-3.4,0-6.1-3-6-6.5l9.2-420.1l27-3.3l-23,423.5
				C2667.9,1279.7,2665.1,1282.6,2661.6,1282.6z"/>
		</g>
		<path class="st8" d="M3791.2,863.6H2629.9c-7.4,0-13.3-6-13.3-13.3v-24c0-7.4,6-13.3,13.3-13.3h1161.3c7.4,0,13.3,6,13.3,13.3v24
			C3804.5,857.7,3798.6,863.6,3791.2,863.6z"/>
	</g>
	<path class="st4" d="M2382.2,93c-4.4-107.9,86.1-155.8,178.5-155.8s193,24,201.8,167.4c5.6,92.3-43.6,149.1-185.2,149.1
		c-47.8,0-84.9-7.5-113.3-21l-70.8,62.9l34.8-87C2397.1,179.9,2384.1,139.5,2382.2,93z"/>
	<g>
		<path class="st15" d="M4483.3,1282.1c0,0,2.6-20.3,8.6-32.3s44.4-4.4,44.4-4.4s7.7,6.6,9.3,37.2L4483.3,1282.1z"/>
		<path class="st15" d="M4352.7,1281.8c9-5.5,3.9-46.5,3.9-46.5s-42-33.6-47.7-7.9c-5.8,25.7-39.9,37.3-59.3,40.4
			c-13.4,2.2-17.5,9.6-18.8,14H4352.7z"/>
		<path class="st33" d="M4439.7,983.5c-1.7,9.4-2.8,17.1-3.1,22.7c-3.9,76.1-64.1,250.1-74.8,254.2c-16.7,6.3-42.9-7.1-56.6-11.4
			c-5.7-1.8-9.5-7.5-8.3-13.4c29.8-137,40.7-334.2,44.7-451c2-58.8,12.1-99.4,12.1-99.4s146.7-39.2,147.6,10.4
			C4502.1,739.3,4452.7,911.2,4439.7,983.5z"/>
		<path class="st15" d="M4439.7,983.5l-98-198.9c2-58.8,12.1-99.4,12.1-99.4s146.7-39.2,147.6,10.4
			C4502.1,739.3,4452.7,911.2,4439.7,983.5z"/>
		<path class="st33" d="M4407,695.7l77.6,562.2c0,0,34.1,8.2,60.6,1.6c0,0,22.7-299,20.8-371.3c-1.9-72.3,16.3-193.4-4.2-206.8
			C4541.4,668.1,4407,695.7,4407,695.7z"/>
		<path class="st24" d="M4576.9,686.3c0.4,5.1-2.9,9.7-7.8,11.1c-10.8,3.1-23.3,5.3-47.4,10.3c-22.6,4.7-53,8.9-90.4,9.1
			c-59.4,0.4-81.9-20.1-81.9-20.1c-2.6,0,1.4-12.4,4.9-71.5c1.2-20,2.3-45.4,3.2-77.5c0.7-28.9,1.3-63.2,1.3-103.9
			c0.1-49,75.8-101.6,77.2-101.6l0,0c0,7,11.1,20.1,28.2,21.2c20.3,1.3,45.2-8.8,45.2-20.5c0-0.1,36.7,58.7,49.7,121.4
			C4565.9,495.9,4563.2,495.1,4576.9,686.3z"/>
		<path class="st24" d="M4436.1,342.2c0,0-70.5-0.6-87.4,23.2c-17,23.8-54.1,151.7-34.7,194.3c19.4,42.6,55.7-17.6,75.9-43.7
			C4410,489.9,4436.1,342.2,4436.1,342.2z"/>
		<path class="st14" d="M4435.4,331.5v7.3c0,0-2,22.8,26.1,26.1c28,3.3,48.9-4.3,48.1-21.8c-2.5-13.6-4.9-27.6-5.1-38.8
			c-0.1-4.2,0.2-8.6,1-13.6l-54.3-1.1l-16,2.6L4435.4,331.5z"/>
		<path class="st34" d="M4435.2,292.1l0.2,39.4c5.8,2.7,12.3,4.3,19.6,4.3c25,0,41.1-18.3,49.6-31.6c-0.1-4.2,0.2-8.6,1-13.6
			l-54.3-1.1L4435.2,292.1z"/>
		<path class="st14" d="M4509.7,281.8c-6.3,33.9-50.1,32.8-69,30.7c-5.3-0.6-8.7-1.3-8.7-1.3c-6-1.6-9.4-11.1-10.9-23.5
			c-3.1-24.5,0.8-60.5,5-69.7c6.2-13.9,18-28.8,62.1-18C4532.2,210.8,4517.8,238.3,4509.7,281.8z"/>
		<path class="st25" d="M4364.1,437.5c0,0-27.2,60.2-26.5,78.2c0,0,13.5-0.5,26.5,3.4C4385.4,525.5,4364.1,437.5,4364.1,437.5z"/>
		<path class="st15" d="M4412.5,185.7c0,0,19.4-1.5,42.3-11.4c18.6-8.1,42,0.8,49.6,4.8c-0.2-1.2-0.7-2.9-1.9-4.6
			c0,0,3.4,2.4,3.9,5.8c0.4,0.3,0.5,0.4,0.4,0.5c0,0,3.9-0.7,6.4,0.4c0,0-1.7-0.2-2.4,0.9c-0.1,0.1-0.2,0.2-0.3,0.3
			c29,14,31.7,59.8,22.3,70.4c-11.2,12.8-28.2,41.6-28.2,41.6s-1.4-6.9,0.6-18.1c2-11.2-7.7-11.2-19.9-16.3s-2-19.4-12.8-28.1
			c-10.7-8.7-50-3.6-49.5-10.2C4408.7,216.4,4412.5,187.2,4412.5,185.7z"/>
		<path class="st25" d="M4518.6,550.3c-11.5,46.2-135.9,70.1-164.2,74.9c1.2-20,2.3-45.4,3.2-77.5L4518.6,550.3z"/>
		<path class="st14" d="M4491.3,565.3c1.2,0,27.7-4,32.4-6.3c4.7-2.4,26.4-33.2,12.2-41.1s-52.3,23.7-52.3,23.7L4491.3,565.3z"/>
		<path class="st24" d="M4330.3,574.4c0,0,102.4,5.6,171.1-9.2c0,0,1.7-19.8-19.9-28.7c0,0-107.1-22.7-132.8-16.4
			C4323,526.6,4330.3,574.4,4330.3,574.4z"/>
		<path class="st24" d="M4565.4,494.1c-21.2,25.6-49,46.5-79.6,51.4l0,0c-0.3-0.4-9.3-14.1-7.6-34.2c0.8-9.3,3.9-20,11.1-31.4
			c2.2-3.5,4.2-7.6,6-12.1c16.7-42.7,14.2-124.9,14.2-124.9s71,7.4,93.1,39C4616.2,401.3,4599,453.6,4565.4,494.1z"/>
		<path class="st34" d="M4440.7,312.5c-5.3-0.6-8.7-1.3-8.7-1.3c-6-1.6-9.4-11.1-10.9-23.5c11.3,2.8,16.4,11.5,18.6,15.2
			C4440.6,304.6,4440.8,308.3,4440.7,312.5z"/>
		<path class="st14" d="M4412.1,331.7c0,0-24.5-40.5-5.5-42.2c19.1-1.8,26.7,11.1,29.5,15.9c2.8,4.7-0.7,26.1-0.7,26.1L4412.1,331.7
			z"/>
		<path class="st24" d="M4505.5,510c-0.8,5.1-2.3,9.8-4.2,14.1c-6,13.3-15.6,21.5-15.6,21.5l0,0c-63.7-28.7-76.6-127.5-78.7-181.7
			c-0.9-21.8,0-36.4,0-36.4c28.7-9.5,36.8,7,36.8,7s33.9,80.7,51.5,133.4C4502.1,488,4506.4,504.1,4505.5,510z"/>
		<path class="st25" d="M4565.4,494.1c-21.2,25.6-49,46.5-79.6,51.4l0,0c-63.7-28.7-76.6-127.5-78.7-181.7
			c0,0,30.1,109.3,71.2,147.5c7.4,6.9,15.2,11.5,23.2,12.7c0,0,51.7-14.6,62.6-28.4C4564.7,494.7,4565.2,494.2,4565.4,494.1z"/>
	</g>
	<g>
		<g>
			<polygon class="st30" points="3405.4,813 3207.6,813 3148,665 3345.6,665 			"/>
			<polygon class="st30" points="3205.2,807.2 3466.5,807.2 3466.5,813 3207.6,813 			"/>
		</g>
		<path class="st5" d="M3257.5,739c-1.5-5.2,1.5-9.4,6.7-9.4s10.6,4.2,12.1,9.4c1.5,5.2-1.5,9.4-6.7,9.4
			C3264.4,748.4,3259,744.2,3257.5,739z"/>
	</g>
</g>
</svg>
