<?xml version="1.0" encoding="utf-8"?>
<!-- Generator: Adobe Illustrator 19.1.1, SVG Export Plug-In . SVG Version: 6.00 Build 0)  -->
<svg version="1.1" id="OBJECTS" xmlns="http://www.w3.org/2000/svg" xmlns:xlink="http://www.w3.org/1999/xlink" x="0px" y="0px"
	 viewBox="-42 201 500 500" style="enable-background:new -42 201 500 500;" xml:space="preserve">
<style type="text/css">
	.st0{fill:#CEDDDD;}
	.st1{fill:#F8B28E;}
	.st2{fill:#EF9F7D;}
	.st3{fill:#FFFC00;}
	.st4{fill:#3D3D3D;}
	.st5{fill:#0053A2;}
	.st6{fill:#FFFFFF;}
	.st7{fill:#1FAAFF;}
	.st8{fill:#FD2C32;}
	.st9{fill:#C8E3FC;}
	.st10{fill:#DB03C1;}
</style>
<g>
	<g>
		<g>
			<g>
				<g>
					<g>
						<g>
							<path class="st0" d="M108.5,363.8c-0.9-4.4-6.8-6.9,1-9.7c3.1-1.1,5.9-0.3,9-1.1c3.3-0.8,2-0.5,2.8-3.5
								c0.7-2.5-0.1-2.9,2.8-4.6c1.1-0.7,2.2-0.5,3.5-1.5c1.4-1.1,1.9-2.5,3.4-3.1l-1.9-1.2c-1.5,0-3.6,0.4-5-0.1
								c-2.1-0.6-3-2.2-5.4-2.3c-1.8,0-3.8,0.6-5.7,0.8c-4.2,0.3-7.8-0.9-11.8-0.7c-3.8,0.2-7.2,2.6-11,3c-3.5,0.4-7.3,1-10.8,0.8
								c-2.5-0.2-4.5-0.9-6.9-1.2c-2.9-0.3-5.2,1.1-7.9,1.2c-5.7,0.1-10.6-5.9-16.4-5.8c-4,0.1-7.7,2.7-11.9,2
								c-2.5-0.4-3.6-1.8-6.2-1.6c-3.8,0.3-6.8,4.2-10.3,5.3c-2.2,0.7-4.6-0.3-6.8,0.5c-2.7,1-4.2,3.3-7.3,3.8
								c-1.5,0.2-3.3,0-4.9,0.1c-0.5,5.5,12.2,3.8,15.5,3.4c3.2-0.3,5.6-2,8.3-2.8c3.2-1,6.5-0.3,10-0.3c4,0,5.5-2.3,9-3.1
								c1.7-0.4,9.1-0.3,10,1.2c1.9,3.2-4.2,3.6-6.1,3.8c-3,0.3-4.7,0.3-6.8,2.7c2.5,2.5,7.8,0.3,10.7,2.3c3,2.1,0.1,9.9,5.2,9.7
								c0,4.3-0.1,5.8-3.5,6.9c-3.5,1.2-5.2-0.4-5.3,4.6c-0.2,6.9,6.8,5.3,8.5,10.9c0.9,3,1.3,11.9,6.9,6.2c1.5-1.6,0.7-3.7,2.7-5.5
								c2.1-1.9,5.7-2,7.9-3.8c2.4-1.9,2.8-3.9,6-5c2.4-0.8,4.7-0.7,6.8-1.7c2.3-1.2,3.7-3.7,6.3-4.5c1.8-0.6,4.1,0,6-0.5
								C101.9,368.8,109.2,367.8,108.5,363.8z"/>
						</g>
						<g>
							<path class="st0" d="M266.8,615c-5.3,4.5-0.9,3.5-0.6,9.1c0.3,5.5-5.8,6-7.8,10.2c1.7,3.9,6.9,2.7,10.3,2.6
								c1.7-3.5,5.2-4.8,7.3-7.8c1.9-2.6,3.7-6.7,4.8-9.7c1.6-4.6-1.1-9.2-0.7-13.3c-1.5,1-2.1,1-4.1,2
								C272.6,609.8,269.7,612.6,266.8,615z"/>
						</g>
						<g>
							<path class="st0" d="M280.2,606.1c0.2-0.1,0.4-0.3,0.7-0.5c1.5-1.1,1.7-2.8,3.5-3.6l-3.1,1
								C280.6,604.1,280.3,605.1,280.2,606.1z"/>
						</g>
					</g>
				</g>
			</g>
		</g>
		<g>
			<g>
				<path class="st1" d="M149.2,609.9c0,0-1.5,17.1,9.5,27"/>
				<path class="st2" d="M275.2,537.2c0,0,30.4,8.3,37.9,24c7.5,15.6-16.5,30.7-41.4,15.9C246.7,562.2,275.2,537.2,275.2,537.2z"/>
				<path class="st1" d="M313.1,561.2c-2-4.3-5.8-8-10.2-11.1c-6.3,9.7-12,23.1-3.8,32.3C310.7,579.8,317.6,570.6,313.1,561.2z"/>
				<g>
					<path class="st3" d="M277,658c-1,11.1-10.8,19.3-21.9,18.3l-158.3-14c-11.1-1-19.3-10.8-18.3-21.9l29.7-335.2
						c1-11.1,10.8-19.3,21.9-18.3l158.3,14c11.1,1,19.3,10.8,18.3,21.9L277,658z"/>
					<g>
						<path class="st4" d="M254.4,684.3l-158.3-14c-15.5-1.4-27-15.1-25.6-30.6l29.7-335.2c1.4-15.5,15.1-27,30.6-25.6l158.3,14
							c15.5,1.4,27,15.1,25.6,30.6L285,658.7C283.7,674.2,269.9,685.7,254.4,684.3z M129.9,288.5c-10.2-0.9-19.2,6.7-20.1,16.9
							L80.1,640.6c-0.9,10.2,6.7,19.2,16.9,20.1l158.3,14c10.2,0.9,19.2-6.7,20.1-16.9l29.7-335.2c0.9-10.2-6.7-19.2-16.9-20.1
							L129.9,288.5z"/>
					</g>
				</g>
			</g>
			<g>
				<g>
					<circle class="st5" cx="395.2" cy="404" r="50.7"/>
				</g>
				<g>
					<path class="st6" d="M364.5,437.9c-18.7-16.9-20.2-45.9-3.2-64.6c16.9-18.7,45.9-20.2,64.6-3.2c18.7,16.9,20.2,45.9,3.2,64.6
						C412.2,453.4,383.2,454.9,364.5,437.9z M423.4,372.8c-17.2-15.6-43.8-14.2-59.4,3c-15.6,17.2-14.2,43.8,3,59.4
						s43.8,14.2,59.4-3C441.9,415,440.6,388.4,423.4,372.8z"/>
				</g>
				<g>
					
						<rect x="393.3" y="360.1" transform="matrix(-0.7416 -0.6708 0.6708 -0.7416 417.2164 968.6458)" class="st6" width="3.7" height="87.8"/>
				</g>
				<g>
					<path class="st6" d="M357.9,430.1c-0.1-0.9-2-22,17.7-43.8c19.8-21.8,42.4-20.7,43.4-20.7l-0.2,3.7c-0.2,0-21.9-1-40.4,19.4
						c-18.6,20.6-16.8,40.7-16.7,40.9L357.9,430.1z"/>
				</g>
				<g>
					<path class="st6" d="M373.9,444.5v-3.7c0.2,0,20.5-0.2,39-20.7s15.3-41.9,15.3-42.1l3.7-0.6c0.2,0.9,3.5,23.4-16.2,45.2
						C396,444.4,374.8,444.5,373.9,444.5z"/>
				</g>
				<g>
					
						<rect x="351.3" y="402.2" transform="matrix(-0.7415 -0.6709 0.6709 -0.7415 417.129 968.767)" class="st6" width="87.8" height="3.7"/>
				</g>
				<g>
					<path class="st6" d="M407.5,390.4c-16.5-14.9-14.5-29.9-14.4-30.5l3.7,0.5c-0.1,0.6-1.7,13.7,13.2,27.2
						c15,13.6,28.3,10.5,28.4,10.5l0.9,3.6C438.7,401.8,424,405.3,407.5,390.4z"/>
				</g>
				<g>
					<path class="st6" d="M351.4,410.6l-0.9-3.6c0.6-0.2,15.3-3.6,31.8,11.3c16.5,14.9,14.5,29.9,14.4,30.5l-3.7-0.5
						c0.1-0.5,1.7-13.7-13.2-27.2C364.9,407.5,351.9,410.4,351.4,410.6z"/>
				</g>
			</g>
			<g>
				<g>
					<g>
						<path class="st7" d="M177,281c0,15.8-12.8,28.5-28.5,28.5h-43C89.7,309.5,77,296.7,77,281v-43c0-15.8,12.8-28.5,28.5-28.5h43
							c15.7,0,28.5,12.8,28.5,28.5V281z"/>
					</g>
				</g>
				<g>
					<g>
						<path class="st6" d="M137.7,290.1c-8.1,0-14.7-1.3-19.5-3.8c-3.9-1.7-6.6-1.5-6.8-1.5l-2.1,0.3V283v-28.6h1.9l0,0
							c0.4,0,9-0.1,14.2-4.3c5.5-4.5,8.3-10.3,10.4-14.5c1.8-3.7,3-6.1,5.3-6.6c1.8-0.4,3.7,0.5,4.9,2.5c1.8,2.9,2.5,8.3,0.3,12.6
							c-1.1,2.1-1.9,3.7-2.6,4.9c1.1,0,2.5,0.1,3.9,0.1c2,0,3.7,0,4.9-0.1c3-0.2,5.6,2,6.2,5.4c0.4,2,0,3.9-1.1,5.2
							c1.2,1.3,2.2,3.1,2.2,5.2c0,1.3-0.4,3.1-2,4.9c1.6,2,1.8,3.8,1.6,5.1c-0.2,2-1.4,3.8-3.3,5.2c0.6,1.9,0.4,3.8-0.5,5.4
							c-1.2,2.1-3.5,3.6-6.3,3.9C147.1,289.6,142.7,290.1,137.7,290.1z M112.9,281.1c1.5,0.1,3.9,0.5,6.9,1.8
							c4.4,2.3,10.3,3.4,17.9,3.4c4.8,0,9-0.5,11-0.7c1.7-0.2,3-0.9,3.6-2c0.5-1,0.5-2.2-0.2-3.6l-0.8-1.6l1.6-0.8
							c1.6-0.8,2.6-2,2.8-3.2c0.2-1.4-0.9-2.6-1.8-3.4l-1.8-1.5l1.9-1.4c1.4-1,2.1-2.1,2.1-3.3c0-1.5-1.3-3-2.4-3.8l-2.9-2l3.3-1.3
							c1.1-0.4,1.1-1.9,1-2.7c-0.2-0.9-0.8-2.4-2.2-2.4c-1.5,0.1-3.3,0.2-5.4,0.2c-3.5,0-6.8-0.1-7-0.2l-2.9-0.1l1.4-2.6
							c0,0,1.2-2.2,3.9-7.5c1.5-2.9,1.1-6.9-0.1-9c-0.4-0.6-0.7-0.9-0.8-0.9c-0.6,0.3-1.9,2.8-2.8,4.6c-2.2,4.5-5.3,10.6-11.4,15.7
							c-4.7,3.9-11.4,4.9-14.7,5.1v23.2H112.9z"/>
					</g>
					<g>
						<path class="st6" d="M112.8,290.1H94.2V248h18.6V290.1z M97.9,286.4h11.2v-34.7H97.9V286.4z"/>
					</g>
				</g>
			</g>
			<g>
				<path class="st8" d="M177,410.6c0,8-6.5,14.4-14.4,14.4H47.9c-8,0-14.4-6.5-14.4-14.4v-67.2c0-8,6.5-14.4,14.4-14.4h114.6
					c8,0,14.4,6.5,14.4,14.4v67.2H177z"/>
				<polygon class="st6" points="80.9,357.1 129.6,377 80.9,397 				"/>
			</g>
			<g>
				<path class="st8" d="M327,394.5c-8.5,21.8-69.7,62.5-69.7,62.5s-17.6-71.4-9.1-93.1c8.5-21.8,33-32.5,54.7-24.1
					C324.6,348.2,335.4,372.7,327,394.5z"/>
				<circle class="st6" cx="288.2" cy="377.5" r="26.5"/>
			</g>
			<g>
				<g>
					<circle class="st6" cx="255.5" cy="270.9" r="55.8"/>
					<path class="st6" d="M218.3,303.9c0,0,5.3,24.1-16.1,30.9c16.7,11.4,43.6-3.4,50.4-13.3C259.4,311.6,218.3,303.9,218.3,303.9z"
						/>
				</g>
				<g>
					<circle class="st9" cx="223.2" cy="255.6" r="3.4"/>
					<circle class="st9" cx="236.5" cy="255.6" r="3.4"/>
					<circle class="st9" cx="249.7" cy="255.6" r="3.4"/>
					<circle class="st9" cx="262.9" cy="255.6" r="3.4"/>
					<circle class="st9" cx="276.1" cy="255.6" r="3.4"/>
					<circle class="st9" cx="289.3" cy="255.6" r="3.4"/>
				</g>
				<g>
					<circle class="st9" cx="223.2" cy="280.2" r="3.4"/>
					<circle class="st9" cx="236.5" cy="280.2" r="3.4"/>
					<circle class="st9" cx="249.7" cy="280.2" r="3.4"/>
					<circle class="st9" cx="262.9" cy="280.2" r="3.4"/>
					<circle class="st9" cx="276.1" cy="280.2" r="3.4"/>
					<circle class="st9" cx="289.3" cy="280.2" r="3.4"/>
				</g>
			</g>
			<g>
				<path class="st6" d="M37.5,503c-1.4-7.8,3.7-15.4,11.6-16.8l104.7-19.3c7.8-1.4,15.4,3.7,16.8,11.6l12.2,66.1
					c1.4,7.8-3.7,15.4-11.6,16.8L66.5,580.7c-7.8,1.4-15.4-3.7-16.8-11.6L37.5,503z"/>
				<path class="st8" d="M66.5,580.6l104.7-19.3c4.1-0.7,7.4-3.1,9.5-6.3l-60.3-41.6c-7.4-5.1-17.5-3.2-22.6,4.2l-41.9,60.8
					C58.9,580.5,62.7,581.3,66.5,580.6z"/>
				<path class="st6" d="M171.3,561.3c1.5-0.3,2.9-0.8,4.1-1.4l-53.2-36.6c-7.4-5.1-17.5-3.2-22.6,4.2l-36.8,53.4
					c1.2,0.1,2.5,0,3.7-0.2L171.3,561.3z"/>
				<path class="st6" d="M154.3,466.8L49.5,486.1c-4,0.7-7.4,3.1-9.5,6.3l60.3,41.5c7.4,5.1,17.5,3.2,22.6-4.2l41.9-60.8
					C161.9,467,158.1,466.1,154.3,466.8z"/>
				<path class="st8" d="M121.1,519.3c-5.1,7.4-15.2,9.3-22.6,4.2L46,487.3c-2.4,1.2-4.4,2.9-5.8,5.1l60.3,41.5
					c7.4,5.1,17.5,3.2,22.6-4.2l41.9-60.8c-2.2-1.5-4.8-2.3-7.5-2.4L121.1,519.3z"/>
			</g>
			<g>
				<g>
					<path class="st6" d="M343.6,553.5c0,17.6-14.2,31.8-31.8,31.8h-48c-17.6,0-31.8-14.2-31.8-31.8v-48c0-17.6,14.2-31.8,31.8-31.8
						h48c17.6,0,31.8,14.2,31.8,31.8V553.5z"/>
				</g>
				<g>
					<g>
						<path class="st10" d="M311.8,588.5h-48c-19.3,0-35-15.7-35-35v-48c0-19.3,15.7-35,35-35h48c19.3,0,35,15.7,35,35v48
							C346.8,572.8,331.1,588.5,311.8,588.5z M263.9,476.9c-15.8,0-28.6,12.8-28.6,28.6v48c0,15.8,12.8,28.6,28.6,28.6h48
							c15.8,0,28.6-12.8,28.6-28.6v-48c0-15.8-12.8-28.6-28.6-28.6H263.9z"/>
					</g>
				</g>
				<g>
					<path class="st10" d="M287.8,562.9c-18.4,0-33.4-15-33.4-33.4c0-18.4,15-33.4,33.4-33.4s33.4,15,33.4,33.4
						C321.2,548,306.3,562.9,287.8,562.9z M287.8,502.5c-14.9,0-27,12.1-27,27s12.1,27,27,27s27-12.1,27-27
						C314.9,514.6,302.7,502.5,287.8,502.5z"/>
				</g>
				<circle class="st10" cx="314.5" cy="492.9" r="6.2"/>
			</g>
			<g>
				<g>
					<path class="st8" d="M71.7,343c0,4.8-3.9,8.7-8.7,8.7H-6.1c-4.8,0-8.7-3.9-8.7-8.7v-40.5c0-4.8,3.9-8.7,8.7-8.7H63
						c4.8,0,8.7,3.9,8.7,8.7V343z"/>
					<polygon class="st8" points="11.7,344.1 28.8,366.9 45.3,344.1 					"/>
				</g>
				<g>
					<path class="st6" d="M28.5,314.7c0,0,2.7-5.7,9.7-5.5c7.1,0.1,10.8,9.9,5.4,18.1c-4.1,6.2-15.1,12.8-15.1,12.8V314.7z"/>
					<path class="st6" d="M28.5,314.7c0,0-2.7-5.7-9.7-5.5c-7.1,0.1-10.8,9.9-5.4,18.1c4.1,6.2,15.1,12.8,15.1,12.8V314.7z"/>
				</g>
			</g>
		</g>
	</g>
</g>
</svg>
