<?xml version="1.0" encoding="utf-8"?>
<!-- Generator: Adobe Illustrator 19.1.1, SVG Export Plug-In . SVG Version: 6.00 Build 0)  -->
<svg version="1.1" id="Calque_1" xmlns="http://www.w3.org/2000/svg" xmlns:xlink="http://www.w3.org/1999/xlink" x="0px" y="0px"
	 viewBox="1707 -800 4000 2500" style="enable-background:new 1707 -800 4000 2500;" xml:space="preserve">
<style type="text/css">
	.st0{opacity:0.25;fill:url(#SVGID_1_);enable-background:new    ;}
	.st1{opacity:0.25;fill:url(#SVGID_2_);enable-background:new    ;}
	.st2{opacity:0.25;fill:url(#SVGID_3_);enable-background:new    ;}
	.st3{opacity:0.4;fill:#5E92DD;enable-background:new    ;}
	.st4{fill:#95C0F4;}
	.st5{fill:#8CBAF1;}
	.st6{fill:#B71355;}
	.st7{fill:#FCECDB;}
	.st8{fill:#E71467;}
	.st9{fill:#F9E5D1;}
	.st10{fill:#B7D3F3;}
	.st11{fill:#D2E3FC;}
	.st12{fill:#C5DCF8;}
	.st13{fill:#FFB27D;}
	.st14{fill:#1C468A;}
	.st15{fill:#163560;}
	.st16{fill:#B5453C;}
	.st17{fill:#ED975D;}
	.st18{fill:#FFFFFF;}
	.st19{fill:#F9DDBF;}
	.st20{fill:#78ACEA;}
	.st21{fill:#2E3552;}
	.st22{fill:#233862;}
	.st23{fill:#004A99;}
	.st24{fill:#08355E;}
	.st25{fill:#2A4E96;}
	.st26{fill:#ED985F;}
	.st27{fill:#2C3A64;}
</style>
<g id="_x3C_Layer_x3E_">
	<g>
		
			<linearGradient id="SVGID_1_" gradientUnits="userSpaceOnUse" x1="4069.8643" y1="-941.2368" x2="4069.8643" y2="1700" gradientTransform="matrix(1 0 0 -1 0 900)">
			<stop  offset="0" style="stop-color:#FFFC00"/>
			<stop  offset="0.505" style="stop-color:#004A99"/>
			<stop  offset="1" style="stop-color:#E71467"/>
		</linearGradient>
		<path class="st0" d="M4667.7,1839.3c667-21.2,945.1-706.3,880.9-1481.3c-39.1-471.3-250.3-907.3-634.7-1158H3304.3
			c-166.8,106-293.1,235.3-391.9,353.6c-397.2,475.7-447.6,1279.8-88.6,1691.6C3182.8,1657.1,3899,1863.7,4667.7,1839.3z"/>
		
			<linearGradient id="SVGID_2_" gradientUnits="userSpaceOnUse" x1="4391.4189" y1="-1192.4182" x2="4391.4189" y2="1700" gradientTransform="matrix(1 0 0 -1 0 900)">
			<stop  offset="0" style="stop-color:#FFFC00"/>
			<stop  offset="0.505" style="stop-color:#004A99"/>
			<stop  offset="1" style="stop-color:#E71467"/>
		</linearGradient>
		<path class="st1" d="M4028.2,1986.4c564.3,240.3,1342.6,57.5,1632.7-400.8c17.1-27,33.1-55,48.1-83.8V-319.9
			c-1.4-4.3-2.8-8.5-4.2-12.8c-74.7-224.2-216.2-376.8-400.1-467.3H4207.2c-52.9,17-105.9,35.9-158.9,56.7
			c-645.7,254.3-1112,843-937.6,1630.6C3263.3,1575.9,3696.7,1845.2,4028.2,1986.4z"/>
		
			<linearGradient id="SVGID_3_" gradientUnits="userSpaceOnUse" x1="3090.166" y1="-889.6881" x2="5521.5024" y2="1150.4454" gradientTransform="matrix(1 0 0 -1 0 900)">
			<stop  offset="0" style="stop-color:#FFFC00"/>
			<stop  offset="0.505" style="stop-color:#004A99"/>
			<stop  offset="1" style="stop-color:#E71467"/>
		</linearGradient>
		<path class="st2" d="M5695.5,962c4.5-12.7,9-25.4,13.5-38.3V-15.9c-74.1-120.7-192.8-225.9-372.3-304.8
			C4728-588.1,3258.4-400.2,2832.2,433.8c-345.4,675.9,156.4,1463.2,772.7,1728.5H4506C5080.1,1945,5542.1,1389,5695.5,962z"/>
	</g>
</g>
<g id="Слой_2">
	<g>
		<g>
			<path d="M4814.4-40.9v1683.7c0,26.4-21.6,48-48,48h-841.9c-26.4,0-48-21.6-48-48V-40.9c0-26.4,21.6-48,48-48h841.9
				C4792.8-88.9,4814.4-67.3,4814.4-40.9z"/>
			<g>
				<path class="st3" d="M4482.9-21.5h-243.8c-5.2,0-9.5-4.3-9.5-9.5l0,0c0-5.2,4.3-9.5,9.5-9.5h243.8c5.2,0,9.5,4.3,9.5,9.5l0,0
					C4492.4-25.8,4488.1-21.5,4482.9-21.5z"/>
				<path class="st3" d="M4195.8-21.5L4195.8-21.5c-5.2,0-9.5-4.3-9.5-9.5l0,0c0-5.2,4.3-9.5,9.5-9.5l0,0c5.2,0,9.5,4.3,9.5,9.5l0,0
					C4205.2-25.8,4201-21.5,4195.8-21.5z"/>
			</g>
			<path class="st4" d="M4418.2,1592.5c0,16.8-6.8,32-17.7,43.1c-11.1,11.2-26.5,18.1-43.4,18.1c-33.8,0-61.2-27.4-61.2-61.2
				c0-21.7,11.3-40.8,28.4-51.6c9.5-6,20.7-9.5,32.8-9.5C4390.8,1531.3,4418.2,1558.7,4418.2,1592.5z"/>
			<rect x="3932.6" y="20.8" class="st4" width="831.7" height="1480.4"/>
			<path class="st5" d="M4400.5,1635.5c-11.1,11.2-26.5,18.1-43.4,18.1c-33.8,0-61.2-27.4-61.2-61.2c0-21.7,11.3-40.8,28.4-51.6
				C4330.2,1566.9,4348,1610.4,4400.5,1635.5z"/>
		</g>
		<path class="st6" d="M4752.4,197.8h-1.9h-385.1h-387c-6.6,0-12,7-12,15.5v494.9c0,8.5,5.4,15.5,12,15.5h387h385.1h1.9
			c6.6,0,12-7,12-15.5V213.3C4764.3,204.7,4759,197.8,4752.4,197.8z"/>
		<path class="st6" d="M4463.6,799h-1.5h-300.2h-301.7c-5.1,0-9.3,7-9.3,15.5v494.9c0,8.5,4.2,15.5,9.3,15.5h301.7h300.2h1.5
			c5.1,0,9.3-7,9.3-15.5V814.5C4472.9,805.9,4468.7,799,4463.6,799z"/>
		<g>
			<path class="st7" d="M5046.6,168.7v494.9c0,8.5-7,15.5-15.5,15.5H4028.9c-8.5,0-15.5-7-15.5-15.5V168.7c0-8.5,7-15.5,15.5-15.5
				h1002.2C5039.7,153.2,5046.6,160.2,5046.6,168.7z"/>
			<path class="st8" d="M5046.6,168.7v494.9c0,8.5-8.1,15.5-18,15.5H4530V153.2h498.6C5038.5,153.2,5046.6,160.2,5046.6,168.7z"/>
			<g>
				<path class="st7" d="M4774.8,345.3h-176.4c-6.2,0-11.2-5.1-11.2-11.2l0,0c0-6.2,5.1-11.2,11.2-11.2h176.4
					c6.2,0,11.2,5.1,11.2,11.2l0,0C4786,340.2,4781,345.3,4774.8,345.3z"/>
				<path class="st7" d="M4729.8,379h-131.4c-6.2,0-11.2-5.1-11.2-11.2l0,0c0-6.2,5.1-11.2,11.2-11.2h131.5
					c6.2,0,11.2,5.1,11.2,11.2l0,0C4741.1,373.9,4736,379,4729.8,379z"/>
			</g>
			<g>
				<path class="st7" d="M4600.7,219.4c4.2-5.6,9.8-8.4,16.6-8.4c6.8,0,12.3,2.8,16.5,8.3c4.2,5.5,6.3,12.3,6.3,20.6
					c0,8.2-2.1,15.1-6.3,20.6c-4.2,5.5-9.7,8.3-16.5,8.3c-6.8,0-12.3-2.8-16.6-8.3c-4.2-5.5-6.3-12.3-6.3-20.6
					C4594.4,231.8,4596.5,224.9,4600.7,219.4z M4629.5,223.2c-3.2-4.5-7.2-6.7-12.2-6.7s-9,2.2-12.2,6.7c-3.2,4.5-4.8,10-4.8,16.6
					c0,6.7,1.6,12.3,4.7,16.7c3.2,4.4,7.2,6.6,12.3,6.6c5,0,9.1-2.2,12.2-6.6c3.2-4.5,4.8-10,4.8-16.7
					C4634.3,233.3,4632.7,227.7,4629.5,223.2z"/>
				<path class="st7" d="M4685.5,218c3.7,4.5,5.7,11,5.7,19.2c0.3,17.4-9.1,31.7-24.2,31.5c-4.5,0-8.5-1.1-11.8-3.4v-5.7
					c3.5,2.4,7.2,3.6,11.3,3.6c13.2,0,18.7-12,19-23.8c-2.9,5-8.8,8.3-16.3,8.3c-5,0-9.3-1.7-12.8-4.9c-3.4-3.3-5.2-7.6-5.2-12.8
					c0-5.5,1.8-10,5.4-13.5c3.7-3.6,8.2-5.3,13.5-5.3C4676.6,211.1,4681.8,213.4,4685.5,218z M4660.8,220.4
					c-2.6,2.5-3.8,5.7-3.8,9.6c0,3.8,1.3,6.9,3.9,9.2c2.6,2.3,5.8,3.4,9.7,3.4c3.3,0,6.3-1,9.1-3.1c2.8-2.1,4.6-4.6,5.7-7.7
					c-1-9.6-6.2-15.1-14.9-15.1C4666.6,216.6,4663.4,217.8,4660.8,220.4z"/>
				<path class="st7" d="M4703,231.5c1.6-1.6,4.3-1.6,5.9,0s1.6,4.3,0,5.9s-4.3,1.6-5.9,0C4701.4,235.8,4701.4,233.1,4703,231.5z
					 M4703,261.2c1.6-1.6,4.3-1.6,5.9,0s1.6,4.3,0,5.9s-4.3,1.6-5.9,0C4701.4,265.5,4701.4,262.8,4703,261.2z"/>
				<path class="st7" d="M4730.6,267.8v-49.4l-12.5,7.2v-5.7l13.1-7.9h5.2v55.8L4730.6,267.8L4730.6,267.8z"/>
				<path class="st7" d="M4756.7,219.4c4.2-5.6,9.8-8.4,16.6-8.4c6.8,0,12.3,2.8,16.5,8.3c4.2,5.5,6.3,12.3,6.3,20.6
					c0,8.2-2.1,15.1-6.3,20.6c-4.2,5.5-9.7,8.3-16.5,8.3c-6.8,0-12.3-2.8-16.6-8.3c-4.2-5.5-6.3-12.3-6.3-20.6
					C4750.4,231.8,4752.5,224.9,4756.7,219.4z M4785.4,223.2c-3.2-4.5-7.2-6.7-12.2-6.7c-4.9,0-9,2.2-12.2,6.7
					c-3.2,4.5-4.8,10-4.8,16.6c0,6.7,1.6,12.3,4.7,16.7c3.2,4.4,7.3,6.6,12.3,6.6s9.1-2.2,12.2-6.6c3.2-4.5,4.8-10,4.8-16.7
					C4790.2,233.3,4788.6,227.7,4785.4,223.2z"/>
				<path class="st7" d="M4830.4,267.8V212h23.4c11.2,0,17.8,6.2,17.8,15.5c0,9.5-6.7,15.7-17.8,15.7h-17.5v24.6L4830.4,267.8
					L4830.4,267.8z M4836.3,237.8h17.1c7.9,0,12.4-3.7,12.4-10.2c0-6.6-4.5-10.3-12.4-10.3h-17.1V237.8z"/>
				<path class="st7" d="M4883.3,267.8V212h5.8l20.2,27l20.2-27h5.7v55.8h-5.8V221l-18.2,24.4h-3.6l-18.4-24.4v46.8H4883.3z"/>
			</g>
			<path class="st9" d="M4310.9,679H4029c-8.5,0-15.5-7-15.5-15.5V327.2C4090.3,418.1,4240.8,596.1,4310.9,679z"/>
			<g>
				<path class="st8" d="M4261.3,587.1h-176.4c-6.2,0-11.2-5.1-11.2-11.2l0,0c0-6.2,5.1-11.2,11.2-11.2h176.4
					c6.2,0,11.2,5.1,11.2,11.2l0,0C4272.5,582.1,4267.4,587.1,4261.3,587.1z"/>
				<path class="st8" d="M4216.3,620.8h-131.5c-6.2,0-11.2-5.1-11.2-11.2l0,0c0-6.2,5.1-11.2,11.2-11.2h131.5
					c6.2,0,11.2,5.1,11.2,11.2l0,0C4227.6,615.8,4222.5,620.8,4216.3,620.8z"/>
			</g>
		</g>
		<g>
			<path class="st7" d="M4551.8,776.5v494.9c0,8.5-7,15.5-15.5,15.5H3534.1c-8.5,0-15.5-7-15.5-15.5V776.5c0-8.5,7-15.5,15.5-15.5
				h1002.2C4544.8,761,4551.8,768,4551.8,776.5z"/>
			<path class="st8" d="M4551.8,776.5v494.9c0,8.5-7,15.5-15.5,15.5h-445.7V761h445.7C4544.8,761,4551.8,768,4551.8,776.5z"/>
			<g>
				<g>
					<path class="st7" d="M4317.8,1131.1c-8.9,0-17.1-4.7-21.6-12.4l-65.9-112.6c-7-11.9-3-27.2,9-34.2c11.9-7,27.2-3,34.2,9
						l42.3,72.2l79.6-163.7c6-12.4,21-17.6,33.4-11.6c12.4,6,17.6,21,11.6,33.4l-100,205.8c-4,8.3-12.3,13.7-21.5,14.1
						C4318.4,1131.1,4318.1,1131.1,4317.8,1131.1z"/>
				</g>
				<g>
					<path class="st7" d="M4317.8,1189c-85.5,0-155.1-69.6-155.1-155.1s69.6-155.1,155.1-155.1s155.1,69.6,155.1,155.1
						C4472.9,1119.4,4403.3,1189,4317.8,1189z M4317.8,896.9c-75.5,0-137,61.4-137,137c0,75.5,61.4,137,137,137
						c75.6,0,137-61.4,137-137C4454.7,958.4,4393.3,896.9,4317.8,896.9z"/>
				</g>
			</g>
			<path class="st9" d="M3812.1,1286.8h-278c-8.5,0-15.5-7-15.5-15.5V888.4L3812.1,1286.8z"/>
			<g>
				<g>
					<path class="st8" d="M3653.1,846.8c-30.7,0-55.6,24.9-55.6,55.6s24.9,55.6,55.6,55.6c30.7,0,55.6-24.9,55.6-55.6
						C3708.7,871.7,3683.8,846.8,3653.1,846.8z M3691.6,904.2h-38.5c-1,0-1.8-0.8-1.8-1.8V861c0-1,0.8-1.8,1.8-1.8s1.8,0.8,1.8,1.8
						v39.6h36.7c1,0,1.8,0.8,1.8,1.8C3693.3,903.4,3692.6,904.2,3691.6,904.2z"/>
					<g>
						<path class="st8" d="M3939,881.7h-176.4c-6.2,0-11.2-5.1-11.2-11.2l0,0c0-6.2,5.1-11.2,11.2-11.2H3939
							c6.2,0,11.2,5.1,11.2,11.2l0,0C3950.2,876.7,3945.2,881.7,3939,881.7z"/>
						<path class="st8" d="M3894.1,915.4h-131.5c-6.2,0-11.2-5.1-11.2-11.2l0,0c0-6.2,5.1-11.2,11.2-11.2h131.5
							c6.2,0,11.2,5.1,11.2,11.2l0,0C3905.3,910.4,3900.3,915.4,3894.1,915.4z"/>
					</g>
				</g>
				<g>
					<path class="st8" d="M3647.5,1061.9c-27.6,0-50,22.4-50,50s50,89,50,89s50-61.4,50-89S3675.2,1061.9,3647.5,1061.9z
						 M3647.5,1134.8c-12.9,0-23.4-10.5-23.4-23.4s10.5-23.4,23.4-23.4s23.4,10.5,23.4,23.4S3660.4,1134.8,3647.5,1134.8z"/>
					<g>
						<path class="st8" d="M3925.6,1098.4h-176.4c-6.2,0-11.2-5.1-11.2-11.2l0,0c0-6.2,5.1-11.2,11.2-11.2h176.4
							c6.2,0,11.2,5.1,11.2,11.2l0,0C3936.8,1093.3,3931.8,1098.4,3925.6,1098.4z"/>
						<path class="st8" d="M3880.7,1132.1h-131.5c-6.2,0-11.2-5.1-11.2-11.2l0,0c0-6.2,5.1-11.2,11.2-11.2h131.4
							c6.2,0,11.2,5.1,11.2,11.2l0,0C3891.9,1127,3886.8,1132.1,3880.7,1132.1z"/>
					</g>
				</g>
			</g>
		</g>
		<g>
			<g>
				<path class="st10" d="M2565.2,1058.9c-3.7-90.3-11.6-168.9-21.1-223.7c-15.1-87.4-28.7-137.6-28.9-138.1
					c-2-7.7-30.7-38.8-94.7-37.8c-63.9,1-57.9,41.7-57.9,41.7l0,0c0,1.4,0.2,2.7,0.5,3.6c0.6,2.1,59.3,214.8,56.7,489.5
					c0,3.9-0.5,10.5-0.2,15c0,0,148.1,3.8,148.2,0C2573,1185,2570.5,1118.5,2565.2,1058.9z"/>
				<path class="st11" d="M2583.8,1192.7c0,3.8-2.1,6.9-4.5,6.9h-0.1c-2.5-0.1-4.4-3.1-4.5-6.9h-126.9c0,3.8-2.1,6.9-4.5,6.9h-0.1
					c-2.5-0.1-4.5-3.2-4.5-7.1c0.7-78.6-3.7-152-10.5-216.8c-16.9-161.6-48.1-269.6-48.5-271.1c-0.3-1-0.5-2.2-0.5-3.6
					c0,0-6.1-40.8,57.8-41.7c63.9-1,92.7,30.1,94.7,37.8c0.1,0.4,7.8,28.9,18.1,80c3.4,16.9,7,36.4,10.8,58.1
					c9.5,54.8,17.4,133.4,21.1,223.7C2587.1,1118.5,2588.9,1168.7,2583.8,1192.7z"/>
				<path class="st12" d="M2429.4,1199.6H2927c0,0-11.6-46.9-299.8-39.9C2423.3,1164.6,2429.4,1199.6,2429.4,1199.6z"/>
				<g>
					<path class="st10" d="M2388.9,1689.4c57.7-292.1,42.9-471.3,42.8-473.6c-0.1-4.5,8.1-8.6,12.6-8.7s24.4-1.3,26.7,2.5
						c3,5,14.6,225.9-71.4,479.8H2388.9z"/>
				</g>
				<g>
					<path class="st10" d="M2853.5,1689.4c-57.7-292.1-42.9-471.3-42.8-473.6c0.1-4.5-8.1-8.6-12.6-8.7s-24.4-1.3-26.7,2.5
						c-3,5-14.6,225.9,71.4,479.8H2853.5z"/>
				</g>
				<g>
					<path class="st10" d="M2945.6,1689.4c-57.7-292.1-42.9-471.3-42.8-473.6c0.1-4.5-8.1-8.6-12.6-8.7s-24.4-1.3-26.7,2.5
						c-3,5-14.6,225.9,71.4,479.8H2945.6z"/>
				</g>
				<g>
					<path class="st10" d="M2481.6,1689.4c57.7-292.1,42.9-471.3,42.8-473.6c-0.1-4.5,8.1-8.6,12.6-8.7s24.4-1.3,26.7,2.5
						c3,5,14.6,225.9-71.4,479.8H2481.6z"/>
				</g>
				<path class="st10" d="M2930.6,1214.6h-504.3c-3.8,0-6.9-3.1-6.9-6.9v-13.3c0-3.8,3.1-6.9,6.9-6.9h504.3c3.8,0,6.9,3.1,6.9,6.9
					v13.3C2937.5,1211.5,2934.4,1214.6,2930.6,1214.6z"/>
				<g>
					<path class="st13" d="M2909.8,765.1l165.4-35.8l9.7,23.7c0,0-182.5,108.6-199.6,103.3C2868.3,851,2909.8,765.1,2909.8,765.1z"
						/>
					<path class="st13" d="M2759.4,1513.3c-4.1,4.7-4.7,10.1-2.6,15.7v0.1c3.8,10.5,16.3,22.2,30.9,33.9c1.9,1.5,3.5,2.9,5,4.1
						c0.4,0.3,0.8,0.7,1.1,1s0.6,0.5,0.9,0.8c13.6,12.5,8.5,15.4,32.8,40.8c27.8,28.9,46.9,29.4,52.4,26.8
						c4.6-2.2-4.8-17.6-15.1-34.8c-0.5-0.8-1-1.7-1.5-2.5c-1.4-2.3-2.8-4.6-4.1-6.9c-12.2-20.8-9-30.5-6.2-61.4
						c2.3-25.1,39-140.2,39-140.2l-53.3-9.2c0,0-16,91.7-33.7,105.8c-9.5,7.5-20,7.6-29.1,13.2c-0.6,0.4-1.3,0.8-1.9,1.2
						C2768.8,1505,2763.6,1508.5,2759.4,1513.3z"/>
					<path class="st14" d="M2759.4,1513.3c-4.1,4.7-4.7,10.1-2.6,15.7v0.1c4.6,10.5,16.9,22.1,30.9,33.8c1.8,1.5,3.5,2.9,4.9,4.2
						c0.4,0.3,0.8,0.7,1.1,1c0.3,0.3,0.6,0.5,0.9,0.8c13.6,12.5,8.5,15.4,32.8,40.8c27.8,28.9,46.9,29.4,52.4,26.8
						c4.6-2.2-4.8-17.6-15.1-34.8c-5.4-2-30.5-12.2-49.5-36.5c-16.7-21.4-27.9-48.8-39.3-64.7c-0.6,0.4-1.3,0.8-1.9,1.2
						C2768.8,1505,2763.6,1508.5,2759.4,1513.3z"/>
					<path class="st13" d="M3189,1480c3.3,16.4,26.7,13.7,52.9,7.3c26.2-6.4,20,1.2,57.2-2.9c37.3-4.1,48.6-18,49.7-23.6
						c1-4.9-17.4-6.7-37.2-8.9c-2.5-0.3-5-0.6-7.5-0.9c-22.3-2.8-38.6-17.2-58.9-29c-19.2-11.2-47.8-56.8-47.8-56.8l-51.1,4
						c0,0,26.8,40.7,37.2,58.4c6.1,10.4,5.8,24.2,5,34.8C3188.2,1468.3,3187.8,1474.2,3189,1480z"/>
					<path class="st14" d="M3241.9,1487.3c26.2-6.4,20,1.2,57.2-2.9c37.3-4.1,48.6-18,49.7-23.6c1-4.9-17.4-6.7-37.2-8.9l-0.2,0.4
						c0,0-22.4,15.8-53.4,16.6c-25.3,0.6-52.1-6.6-69.5-6.3c-0.4,5.8-0.8,11.7,0.4,17.5C3192.3,1496.5,3215.7,1493.7,3241.9,1487.3z
						"/>
					<path class="st13" d="M3075.3,729.3c0,0,12.2-29.8,25.6-31.1c13.4-1.2,56-7.9,59.1-1.8c3,6.1,0,28-9.1,35.9
						c-9.1,7.9-65.8,20.7-65.8,20.7L3075.3,729.3z"/>
					<path class="st15" d="M2993.1,1153.2L2883,1449.6c0,0-16.9,1.6-33.1-3c-14.9-4.3-32-15.6-32-15.6s27.3-284.6,77.4-343.8
						C2945.3,1028,2993.1,1153.2,2993.1,1153.2z"/>
					<path class="st14" d="M2557.4,1033.3c0,0,316.5-107,387.1-84.3c70.6,22.8,282.5,444.5,282.5,444.5s-4.8,6.4-17.8,11.3
						c-12.1,4.6-41.5,4.3-41.5,4.3s-191.3-164-214.1-211.8c-22.8-47.8-31.9-93.4-54.7-88.8c-22.8,4.6-293.8,111.6-355.2,47.8
						c-61.5-63.8-45.4-146.6-45.4-146.6L2557.4,1033.3z"/>
					<path class="st16" d="M2737.9,278.6c-13.7-7.8-30.1-8.6-41.5-7.9c3-3,8.8-4.2,8.8-4.2c-7.1-1.1-23,6-23,6
						c-98.9-38.1-114.5,107.5-112.4,141.4c2.1,33.8,2.3,72.8-47.1,103.1c-97.2,59.7-15.2,164-15.2,164c0.8,0.5,45.2,75.8,45.2,75.8
						c-2.5-27.3,123.7-171.7,189.5-214.9c16-23.6,21.7-65.3,22.1-68.5c-2.8,33-8.4,51.6-13.5,62
						C2806.6,484.1,2774.1,299.2,2737.9,278.6z"/>
					<path class="st13" d="M2738.3,544.1c0.3,0.1-31.8,16.8-55.9,10.2c-22.7-6.2-37.6-35.7-37.3-35.7c9.6-1.9,12.4-15.1,12.2-72
						l4.3,0.9l73.1,14.5c0,0-1.7,23-1.7,44.7C2733,524.8,2734.1,542.1,2738.3,544.1z"/>
					<path class="st17" d="M2734.8,461.9c0,0-1.7,23-1.7,44.7c-40.9-1.2-62.6-38.5-71.4-59.2L2734.8,461.9z"/>
					<path class="st16" d="M2654.1,439.5c0,0-21.4-33.9-26.6-62.9c-3.7-20.7,6.9-97.4,83.9-86.3c0,0,22.4,2.2,43.4,16.4
						c16.7,11.3,40.9,35.7,13.9,102.6l-7,22.6L2654.1,439.5z"/>
					<path class="st13" d="M2748.4,482.5c0,0-96.8,1.6-96.9-58.7c-0.1-60.3-12.6-100.7,49.2-104.3c61.8-3.6,73.9,19.4,78.8,39.6
						C2784.4,379.1,2773.6,480.5,2748.4,482.5z"/>
					<path class="st16" d="M2744.8,318c0,0-26.5,70.8-67.2,81.2c-40.7,10.5-58.3-0.4-58.3-0.4s31.2-24.8,37.7-68.1
						C2657,330.7,2724.8,284.3,2744.8,318z"/>
					<path class="st16" d="M2738.3,323.7c0,0,19.8,15.8,24.6,31.2c4.8,15.4,7,47,16.2,45.9c0,0,20-48.1-2.5-75.3
						C2752.8,296.6,2738.3,323.7,2738.3,323.7z"/>
					<path class="st14" d="M2522.6,804.6c-9.5-40.1,22.9-117.8,56.9-182.1c30.8-58.3,62.7-105.6,65.6-103.9
						c81.2,48.2,88.5,8.1,88.5,8.1l0,0c0,0,73.7,9.8,94.6,45.7c25.9,44.6,53.9,169.2,81.7,192.7c-4.3,13.1-2.4,20,2.1,36.2
						c1,3.5,2,6.8,3.2,9.9c4.2,11.4,9.4,20.6,13.9,28.6c-14.1,8.6-41.4,24.9-61.5,13.2c-30.6-17.9-54.5-72.5-68-94.2
						c-0.1-0.1-0.1-0.2-0.2-0.2c-29.2,165.5,10.5,203.2-9.6,220.7c-21.3,18.4-51.6-8.8-118.4,20.2c-43.8,19-104.6,46.5-145.5,51.3
						c-21.5,2.5-37.5-1.2-42.7-15.7C2468,992.8,2540.9,880.9,2522.6,804.6z"/>
					<path class="st18" d="M2726.9,445.9c0,0,1.8,7.7,20.9,6.5c0,0,16-1,15.5-9.4C2763.3,443,2747.8,437,2726.9,445.9z"/>
					<path class="st15" d="M2483.2,1034.9c5.2,14.5,21.2,18.2,42.7,15.7c28.3-12.3,150.7-59.8,149.3-91.9
						c-2-47.6-23.5-49.1-8.3-107.8c12.2-47.1-100.9-134.8-118.9-153.8c-33.9,64.3-34.9,67.4-25.3,107.4
						C2540.9,880.9,2468,992.8,2483.2,1034.9z"/>
					<path class="st14" d="M2469.3,863.4c21.7-30.5,44.3-46.6,59.2-54.7c-3.4-8.8,91.3-124.9,91.3-142.9
						c0-18.2,25.3-147.2,25.3-147.2s-78.9,4.9-106.2,43C2504.7,609.2,2433.7,792.6,2469.3,863.4z"/>
					<path class="st13" d="M2528.5,808.7l157.7,41.1l-14.8,26.6c0,0-191.9-1.3-202.1-13C2459.2,851.7,2528.5,808.7,2528.5,808.7z"/>
					<path class="st15" d="M2799.6,758.8c13.5,21.7,37.4,76.3,68,94.2c20.1,11.7,47.4-4.6,61.5-13.2c-4.5-8-9.8-17.3-13.9-28.6
						c-11.3,2.6-25,5.9-33.9,8.6C2864,825,2799.6,758.8,2799.6,758.8z"/>
					<path class="st13" d="M2686.2,849.8c0,0,49.5-14,61.3-10.7s52.2,30,46.5,37.3s-41.3-4.4-57.7-2.2c-16.4,2.2-29.1,10.3-40.8,8.5
						c-11.8-1.7-24.1-6.4-24.1-6.4L2686.2,849.8z"/>
					<path class="st13" d="M2686.2,849.8c0,0,24.2-12.4,31.1-19.5c0.9-0.9,2.3-0.7,3,0.3c1.8,2.9,3.6,8.5-4.9,14.1
						C2703.2,852.8,2686.2,849.8,2686.2,849.8z"/>
				</g>
			</g>
			<g>
				<path class="st6" d="M2915.1,919.5H2684l0,0c0-10.2,8.2-18.4,18.4-18.4H2915v18.4H2915.1z"/>
				<polygon class="st6" points="2914.4,667.9 3271.6,667.9 3186,919.5 2826.4,919.5 				"/>
				<polygon class="st8" points="3276.9,667.9 3191.2,919.5 2831.7,919.5 2919.7,667.9 				"/>
				<path class="st19" d="M3084.3,791.4c-2.2,9.6-11.8,17.4-21.4,17.4c-9.6,0-15.6-7.8-13.4-17.4s11.8-17.4,21.4-17.4
					C3080.5,774,3086.5,781.8,3084.3,791.4z"/>
				<path class="st6" d="M3276.9,667.9l-85.7,251.6h-238.1c157.7-53.8,199.7-218,206.8-251.6H3276.9z"/>
			</g>
		</g>
		<g>
			<g>
				<path class="st4" d="M2239.8,1689.4c4.5,0,8.4-3.2,9.2-7.5l44.9-254.3l64.5-365.7l18-102.3l-46-1.3l-8,59.4l-56,417.2
					l-33.2,247.3C2232.8,1686,2235.9,1689.4,2239.8,1689.4z"/>
			</g>
			<path class="st20" d="M2322.5,1017.7c29.8,13.1,35.9,44.2,35.9,44.2l18-102.3l-46-1.3L2322.5,1017.7z"/>
		</g>
		<g>
			<g>
				<path class="st4" d="M3383.1,1689.4c-4.5,0-8.4-3.2-9.2-7.5l-44.9-254.3l-64.5-365.7l-18-102.3l46-1.3l8,59.4l56,417.2
					l33.2,247.3C3390.2,1686,3387.1,1689.4,3383.1,1689.4z"/>
			</g>
			<path class="st20" d="M3300.5,1017.7c-29.8,13.1-35.9,44.2-35.9,44.2l-18-102.3l46-1.3L3300.5,1017.7z"/>
		</g>
		<path class="st20" d="M2200,999.8h1195.4c10.4,0,18.9-8.5,18.9-18.9v-42.5c0-10.4-8.5-18.9-18.9-18.9H2200
			c-10.4,0-18.9,8.5-18.9,18.9v42.5C2181.1,991.3,2189.6,999.8,2200,999.8z"/>
		<path class="st21" d="M6008.9,1700H1966c-3,0-5.4-2.4-5.4-5.4l0,0c0-3,2.4-5.4,5.4-5.4h4042.9c3,0,5.4,2.4,5.4,5.4l0,0
			C6014.2,1697.6,6011.8,1700,6008.9,1700z"/>
		<g>
			<path class="st13" d="M4947.9,379c0,0-16.4-53-25.8-58.7c-9.3-5.7-48.2-24.9-50.6-19.7c-2.3,5.2,21,30.4,26.2,38.8
				s7.8,16.7,4.1,13.1c-3.6-3.6-23.3-15.8-25.4-13.1c-2.1,2.7,9.8,13.1,15.5,21.4s11.9,22.3,32.1,25.4
				C4944.5,389.2,4947.9,379,4947.9,379z"/>
			<path class="st13" d="M5547,825.3c0,0-4.9,47.9-10.3,56.9c-5.4,9.1-28.4,38-38.2,43.7s6-38.1,4-46.7c-2-8.5-8.1,15.6-12.4,16.1
				c-4.3,0.6-3.2-21.1-3.4-29s21-27.4,28.5-44.2C5522.6,805.5,5547,825.3,5547,825.3z"/>
			<path class="st22" d="M5396.8,334c0,0-39.8,195.4-258.9,259.3C5069.4,613.2,4914,388,4914,388s5.5-20.8,39.7-16
				c0,0,151.3,100.2,170.4,111.1c16.9,9.7,128.1-124.1,178.7-145.7C5353.5,315.8,5396.8,334,5396.8,334z"/>
			<g>
				<path class="st22" d="M5658.4,1562.6c0,0,27.2,24.8,21.9,42.4c-5.3,17.6-29.8,29.4-33.2,50.9c-3.3,21.5-16.6,33.3-28.5,33.3
					c-11.9,0-56.9,0-56.9,0s-8.8-15.2,12.4-19.7c21.2-4.6,29.2-29.9,27.9-53.4c-1.3-23.5,2-54.8,2-54.8l45.1-10.4L5658.4,1562.6z"/>
				<path class="st22" d="M5324.9,1626.8c0,0,4.9,56.5-7.1,62.3l-152.7-0.3c0,0,0-17.6,24.5-21.5s67.6-18.3,74.9-50.3
					S5324.9,1626.8,5324.9,1626.8z"/>
				<path class="st23" d="M5195.9,829.2c0,0,8.1,99,17.5,217.9c12.9,161.6,28.3,360.1,29.9,397.7c2.6,65.3,13.3,169.7,13.3,169.7
					s25.2,24.8,75.6,14.4c0,0,44.9-149.1,57.7-306.9c0.2-2.6,0.4-5.2,0.6-7.8c11.9-160.6,30.5-498.8,30.5-498.8L5195.9,829.2z"/>
				<path class="st24" d="M5195.9,829.2c0,0,8.1,99,17.5,217.9l176.5,274.9c0.2-2.6,0.4-5.2,0.6-7.8
					c11.9-160.6,30.5-498.8,30.5-498.8L5195.9,829.2z"/>
				<path class="st23" d="M5232.7,841c0,0,145.2,358.4,240.7,526.8s125.3,215.4,125.3,215.4s54.7-21.5,59.7-36.2
					c0,0-36.5-325.2-100.4-404.4c-36.1-44.8-78.6-179.2-80.6-226.2s-12.9-140-12.9-140L5232.7,841z"/>
			</g>
			<path class="st13" d="M5423.8,288.6c0,0-98.2,47.4-154.9,29.8c0,0,13.9-17.6,38.3-30.7c-2-11.4-3.5-21.2-4.4-29.6
				c-2.4-19.3-2.4-30.2-2.4-30.2l37.9-29.8l35.9-28.5C5371.5,249.8,5423.8,288.6,5423.8,288.6z"/>
			<path class="st25" d="M5475.5,794.7c0.2,6-12.6,12.9-18.3,15.4c-42,18.5-81.2,31.3-125.7,35.6c-52.5,5.4-114.6-6.4-135.9-6
				c-2.2,0-4.1-0.9-5.9-2.4c-1.5-1.1-2.6-64.3-1.5-143.9c0-3.2,0-6.4,0.2-9.6v-1.1c0.4-31.1,1.5-63.7,3-96.3
				c3-71.6,8.7-140.7,18.3-178.9c11.5-45,37.7-74.9,61.4-96.5l19.6-17.2c19.6,3.9,40.3,2.8,61-7.3c22.7-10.9,47.1-22.7,51-19.7
				c29.6,21.7,49.7,70.3,60.3,132.6c0,0.3,0.1,0.6,0.2,0.9c6,35.6,9,75.4,8.8,117c0,15.5-0.4,31.3-1.3,47
				c-4.4,70.9-1.4,134.1,1.4,177.8c0.6,8.6,1.1,16.5,1.6,23.6C5474.7,778.2,5475.3,787.9,5475.5,794.7z"/>
			<path class="st22" d="M5472.2,742.2c-162.9-188-61.8-324.7-61.8-324.7l52.9-17.2c6,35.6,9,75.4,8.8,117c0,15.5-0.4,31.3-1.3,47
				C5466.4,635.3,5469.3,698.4,5472.2,742.2z"/>
			<path class="st26" d="M5375,200.3c0,0-24.8,45.3-72.1,57.9c-2.4-19.3-2.4-30.2-2.4-30.2l37.9-29.8L5375,200.3z"/>
			<path class="st13" d="M5283.2,226.6c0,0,93.7,15.3,102.5-42.3c8.8-57.6,26.8-94.4-32.6-106.7c-59.5-12.2-74.5,8-82.2,26.6
				C5263.2,122.8,5259,221.2,5283.2,226.6z"/>
			<path class="st27" d="M5419.8,70.8c0.9-1,2.8-1.8,7.2-2c0,0-3.5-2.2-8.2-2.3c-0.9-6.1-4.1-16.8-14.6-19.4c0,0,5.6,3,6.4,9.5
				c-12.1-12.4-38-21.5-109.9-15.8c-94.7,7.5-63.5,68.1-51.2,75.3s43.1-12.6,65.9-10.8c22.8,1.8,27.2,34.8,34.9,39.3
				s4.7-3.5,15.2-8.2s11.5,12.6,8.4,23.9c-3,11.3,11.4,26.2,11.4,26.2s0,0,14.6-15.7c14.6-15.7,28.3-82.1,21.6-96.2
				C5421,73.3,5420.4,72.1,5419.8,70.8z"/>
			<path class="st25" d="M5402.7,266.4c0,0,59.3,28.1,87.7,71.2c44.1,67,95.2,311,96.2,333.6c0.9,22.6-37.3,182.1-37.3,182.1
				s-38.8-2.6-48.8-22.1c0,0,7.8-163.9,2.8-174.5c-4.9-10.5-161.8-219.9-144.1-264.6C5376.9,347.5,5402.7,266.4,5402.7,266.4z"/>
		</g>
		<path class="st7" d="M4905.7,633.3h-223.4c-23.2,0-42.2-19-42.2-42.2l0,0c0-23.2,19-42.2,42.2-42.2h223.4
			c23.2,0,42.2,19,42.2,42.2l0,0C4947.9,614.3,4928.9,633.3,4905.7,633.3z"/>
		<g>
			<g>
				<path class="st8" d="M4793.5,609.5c-1.7,0-3.2-0.9-4-2.3l-12.3-21c-1.3-2.2-0.6-5.1,1.7-6.4c2.2-1.3,5.1-0.6,6.4,1.7l7.9,13.5
					l14.8-30.5c1.1-2.3,3.9-3.3,6.2-2.2c2.3,1.1,3.3,3.9,2.2,6.2l-18.7,38.4c-0.8,1.5-2.3,2.6-4,2.6
					C4793.6,609.5,4793.6,609.5,4793.5,609.5z"/>
			</g>
			<g>
				<path class="st8" d="M4793.5,620.3c-16,0-28.9-13-28.9-28.9c0-16,13-28.9,28.9-28.9c16,0,28.9,13,28.9,28.9
					S4809.5,620.3,4793.5,620.3z M4793.5,565.8c-14.1,0-25.6,11.5-25.6,25.6s11.5,25.6,25.6,25.6s25.6-11.5,25.6-25.6
					S4807.6,565.8,4793.5,565.8z"/>
			</g>
		</g>
		<g>
			<path class="st7" d="M3473.8,330h-249.9c-32.8,0-59.7,26.9-59.7,59.7v94.6c0,15,5.6,28.8,14.8,39.3l-14.8,67.9l85.6-47.4h224
				c32.8,0,59.7-26.9,59.7-59.7v-94.6C3533.5,356.9,3506.7,330,3473.8,330z"/>
			<path class="st8" d="M3478.5,402h-259.1c-5.3,0-9.7-4.4-9.7-9.7l0,0c0-5.3,4.4-9.7,9.7-9.7h259.1c5.3,0,9.7,4.4,9.7,9.7l0,0
				C3488.2,397.7,3483.9,402,3478.5,402z"/>
			<path class="st8" d="M3478.5,444.5h-259.1c-5.3,0-9.7-4.4-9.7-9.7l0,0c0-5.3,4.4-9.7,9.7-9.7h259.1c5.3,0,9.7,4.4,9.7,9.7l0,0
				C3488.2,440.1,3483.9,444.5,3478.5,444.5z"/>
			<path class="st8" d="M3478.5,485.3h-259.1c-5.3,0-9.7-4.4-9.7-9.7l0,0c0-5.3,4.4-9.7,9.7-9.7h259.1c5.3,0,9.7,4.4,9.7,9.7l0,0
				C3488.2,481,3483.9,485.3,3478.5,485.3z"/>
		</g>
	</g>
</g>
</svg>
