<?xml version="1.0" encoding="utf-8"?>
<!-- Generator: Adobe Illustrator 19.1.1, SVG Export Plug-In . SVG Version: 6.00 Build 0)  -->
<svg version="1.1" id="Calque_1" xmlns="http://www.w3.org/2000/svg" xmlns:xlink="http://www.w3.org/1999/xlink" x="0px" y="0px"
	 viewBox="707 -550 2000 2000" style="enable-background:new 707 -550 2000 2000;" xml:space="preserve">
<style type="text/css">
	.st0{fill:url(#SVGID_1_);}
	.st1{fill:url(#SVGID_2_);}
	.st2{clip-path:url(#SVGID_7_);}
	.st3{clip-path:url(#SVGID_8_);fill:url(#SVGID_9_);}
	.st4{fill:url(#SVGID_10_);}
	.st5{clip-path:url(#SVGID_15_);}
	.st6{clip-path:url(#SVGID_16_);fill:url(#SVGID_17_);}
	.st7{fill:url(#SVGID_18_);}
	.st8{clip-path:url(#SVGID_23_);}
	.st9{clip-path:url(#SVGID_24_);fill:url(#SVGID_25_);}
	.st10{fill:url(#SVGID_26_);}
	.st11{fill:#E0E0E0;}
	.st12{fill:#78C2FF;}
	.st13{fill:#1487E3;}
	.st14{fill:#FFFC00;}
	.st15{fill:#FF8761;}
	.st16{fill:#323657;}
	.st17{fill:#FFFFFF;}
	.st18{fill:url(#SVGID_27_);}
	.st19{fill:#E71467;}
	.st20{fill:#D7D7E6;}
	.st21{fill:#5B83C2;}
	.st22{fill:#5478B3;}
	.st23{fill:#EEA886;}
	.st24{fill:#C5CDDB;}
	.st25{fill:#E55353;}
	.st26{fill:#DCE6FA;}
	.st27{fill:#434343;}
	.st28{fill:#49699C;}
	.st29{fill:#525252;}
	.st30{fill:#6E6E6E;}
	.st31{fill:#A77860;}
	.st32{fill:#35527A;}
	.st33{fill:#FFD670;}
	.st34{fill:#293F5E;}
	.st35{fill:#3A3F47;}
	.st36{fill:#A88D4A;}
	.st37{fill:#444C94;}
	.st38{fill:#303669;}
	.st39{fill:#EAD8CF;}
	.st40{fill:#DA9B5B;}
	.st41{fill:#424773;}
	.st42{fill:#292C47;}
	.st43{fill:#754836;}
	.st44{fill:#E2D2CA;}
	.st45{fill:#EFAA88;}
	.st46{fill:#E8734D;}
	.st47{fill:#EEA987;}
	.st48{fill:#1D3B54;}
	.st49{fill:#857B77;}
	.st50{fill:#918682;}
</style>
<g>
	
		<linearGradient id="SVGID_1_" gradientUnits="userSpaceOnUse" x1="1135.2" y1="-199.6" x2="2699.8999" y2="-199.6" gradientTransform="matrix(1 0 0 -1 0 900)">
		<stop  offset="0" style="stop-color:#004A99"/>
		<stop  offset="0.25" style="stop-color:#024998"/>
		<stop  offset="0.3911" style="stop-color:#0B4897"/>
		<stop  offset="0.5052" style="stop-color:#184494"/>
		<stop  offset="0.6047" style="stop-color:#2C408F"/>
		<stop  offset="0.6948" style="stop-color:#463A8A"/>
		<stop  offset="0.7782" style="stop-color:#653283"/>
		<stop  offset="0.8563" style="stop-color:#8B2A7B"/>
		<stop  offset="0.9282" style="stop-color:#B52072"/>
		<stop  offset="0.9966" style="stop-color:#E41568"/>
		<stop  offset="1" style="stop-color:#E71467"/>
	</linearGradient>
	<polygon class="st0" points="2699.9,1099.6 2499,944.8 2499,1031 2474.4,1031 2280.1,1031 1135.2,1031 1135.2,1169.6 
		2402.6,1169.6 2474.4,1169.6 2499,1169.6 2499,1254.4 	"/>
	<linearGradient id="SVGID_2_" gradientUnits="userSpaceOnUse" x1="2580.9541" y1="58.7044" x2="2105.3591" y2="375.7679">
		<stop  offset="0" style="stop-color:#E71467"/>
		<stop  offset="0.1906" style="stop-color:#BA1E71"/>
		<stop  offset="1" style="stop-color:#004A99"/>
	</linearGradient>
	<path class="st1" d="M2396.6-41.4l-137.9,29.7l63.8,125.8l22.7-47.7c102.1,48.6,145.6,171.3,97,273.4s-171.3,145.6-273.4,97
		c-102.1-48.6-145.6-171.3-97-273.4l-60.1-28.6c-64.4,135.3-6.8,297.7,128.5,362.1s297.7,6.8,362.1-128.5
		c64.4-135.3,6.8-297.7-128.5-362.1L2396.6-41.4z"/>
	<g>
		<g>
			<g>
				<g>
					<defs>
						<polygon id="SVGID_3_" points="715,-575 716,-575 715,-574 						"/>
					</defs>
					<clipPath id="SVGID_4_">
						<use xlink:href="#SVGID_3_"  style="overflow:visible;"/>
					</clipPath>
				</g>
				<g>
					<defs>
						<polygon id="SVGID_5_" points="715,-575 716,-575 715,-574 						"/>
					</defs>
					<defs>
						<polygon id="SVGID_6_" points="713,-577 712,-577 713,-578 						"/>
					</defs>
					<clipPath id="SVGID_7_">
						<use xlink:href="#SVGID_5_"  style="overflow:visible;"/>
					</clipPath>
					<clipPath id="SVGID_8_" class="st2">
						<use xlink:href="#SVGID_6_"  style="overflow:visible;"/>
					</clipPath>
					<linearGradient id="SVGID_9_" gradientUnits="userSpaceOnUse" x1="862.9" y1="517.4" x2="2167.3003" y2="517.4">
						<stop  offset="0" style="stop-color:#000000"/>
						<stop  offset="1" style="stop-color:#FFFFFF"/>
					</linearGradient>
					<path class="st3" d="M1515.1,1169.6c-88,0-173.4-17.3-253.9-51.3c-77.7-32.8-147.4-79.9-207.3-139.7
						C994,918.7,947,849,914.2,771.3c-34-80.4-51.3-165.9-51.3-253.9s17.3-173.4,51.3-253.9c32.8-77.7,79.9-147.4,139.7-207.3
						c59.8-59.9,129.6-106.9,207.3-139.7c80.4-34,165.9-51.3,253.9-51.3s173.4,17.3,253.9,51.3c77.7,32.8,147.4,79.9,207.3,139.7
						c59.9,59.9,106.9,129.6,139.7,207.3c34,80.4,51.3,165.9,51.3,253.9S2150,690.8,2116,771.3c-32.9,77.7-79.9,147.4-139.7,207.3
						c-59.9,59.9-129.6,106.9-207.3,139.7C1688.5,1152.3,1603.1,1169.6,1515.1,1169.6z M1515.1,3.8
						c-283.2,0-513.6,230.4-513.6,513.6s230.4,513.6,513.6,513.6s513.6-230.4,513.6-513.6S1798.3,3.8,1515.1,3.8z"/>
				</g>
			</g>
		</g>
		<linearGradient id="SVGID_10_" gradientUnits="userSpaceOnUse" x1="862.9" y1="517.4" x2="2167.3003" y2="517.4">
			<stop  offset="0" style="stop-color:#E71467"/>
			<stop  offset="0.1079" style="stop-color:#D6186B"/>
			<stop  offset="0.3214" style="stop-color:#AA2274"/>
			<stop  offset="0.6202" style="stop-color:#633383"/>
			<stop  offset="0.9899" style="stop-color:#034998"/>
			<stop  offset="1" style="stop-color:#004A99"/>
		</linearGradient>
		<path class="st4" d="M1515.1,1169.6c-88,0-173.4-17.3-253.9-51.3c-77.7-32.8-147.4-79.9-207.3-139.7
			C994,918.7,947,849,914.2,771.3c-34-80.4-51.3-165.9-51.3-253.9s17.3-173.4,51.3-253.9c32.8-77.7,79.9-147.4,139.7-207.3
			c59.8-59.9,129.6-106.9,207.3-139.7c80.4-34,165.9-51.3,253.9-51.3s173.4,17.3,253.9,51.3c77.7,32.8,147.4,79.9,207.3,139.7
			c59.9,59.9,106.9,129.6,139.7,207.3c34,80.4,51.3,165.9,51.3,253.9S2150,690.8,2116,771.3c-32.9,77.7-79.9,147.4-139.7,207.3
			c-59.9,59.9-129.6,106.9-207.3,139.7C1688.5,1152.3,1603.1,1169.6,1515.1,1169.6z M1515.1,3.8c-283.2,0-513.6,230.4-513.6,513.6
			s230.4,513.6,513.6,513.6s513.6-230.4,513.6-513.6S1798.3,3.8,1515.1,3.8z"/>
	</g>
	<g>
		<g>
			<g>
				<defs>
					<polygon id="SVGID_11_" points="715,-575 716,-575 715,-574 					"/>
				</defs>
				<clipPath id="SVGID_12_">
					<use xlink:href="#SVGID_11_"  style="overflow:visible;"/>
				</clipPath>
			</g>
			<g>
				<defs>
					<polygon id="SVGID_13_" points="715,-575 716,-575 715,-574 					"/>
				</defs>
				<defs>
					<polygon id="SVGID_14_" points="713,-577 712,-577 713,-578 					"/>
				</defs>
				<clipPath id="SVGID_15_">
					<use xlink:href="#SVGID_13_"  style="overflow:visible;"/>
				</clipPath>
				<clipPath id="SVGID_16_" class="st5">
					<use xlink:href="#SVGID_14_"  style="overflow:visible;"/>
				</clipPath>
				<linearGradient id="SVGID_17_" gradientUnits="userSpaceOnUse" x1="1518.3" y1="828.3207" x2="1518.3" y2="1104.2439">
					<stop  offset="0" style="stop-color:#000000"/>
					<stop  offset="1" style="stop-color:#FFFFFF"/>
				</linearGradient>
				<rect x="1026.7" y="796.5" class="st6" width="983.2" height="194.5"/>
			</g>
		</g>
	</g>
	<linearGradient id="SVGID_18_" gradientUnits="userSpaceOnUse" x1="1518.3" y1="828.3207" x2="1518.3" y2="1104.2439">
		<stop  offset="0" style="stop-color:#E71467"/>
		<stop  offset="1" style="stop-color:#004A99"/>
	</linearGradient>
	<rect x="1026.7" y="796.5" class="st7" width="983.2" height="194.5"/>
	<g>
		<g>
			<g>
				<g>
					<defs>
						<polygon id="SVGID_19_" points="715,-575 716,-575 715,-574 						"/>
					</defs>
					<clipPath id="SVGID_20_">
						<use xlink:href="#SVGID_19_"  style="overflow:visible;"/>
					</clipPath>
				</g>
				<g>
					<defs>
						<polygon id="SVGID_21_" points="715,-575 716,-575 715,-574 						"/>
					</defs>
					<defs>
						<polygon id="SVGID_22_" points="713,-577 712,-577 713,-578 						"/>
					</defs>
					<clipPath id="SVGID_23_">
						<use xlink:href="#SVGID_21_"  style="overflow:visible;"/>
					</clipPath>
					<clipPath id="SVGID_24_" class="st8">
						<use xlink:href="#SVGID_22_"  style="overflow:visible;"/>
					</clipPath>
					<linearGradient id="SVGID_25_" gradientUnits="userSpaceOnUse" x1="714" y1="1100.3" x2="1515.1" y2="1100.3">
						<stop  offset="0" style="stop-color:#000000"/>
						<stop  offset="1" style="stop-color:#FFFFFF"/>
					</linearGradient>
					<rect x="714" y="1031" class="st9" width="801.1" height="138.6"/>
				</g>
			</g>
		</g>
		<linearGradient id="SVGID_26_" gradientUnits="userSpaceOnUse" x1="714" y1="1100.3" x2="1515.1" y2="1100.3">
			<stop  offset="0" style="stop-color:#E71467"/>
			<stop  offset="0.405" style="stop-color:#004A99"/>
		</linearGradient>
		<rect x="714" y="1031" class="st10" width="801.1" height="138.6"/>
	</g>
	<g>
		<rect x="1152.9" y="290.6" class="st11" width="159.7" height="16.4"/>
	</g>
	<g>
		<rect x="1357.4" y="413.7" class="st11" width="115.3" height="16.4"/>
	</g>
	<g>
		<rect x="1490.6" y="413.7" class="st12" width="76.5" height="16.4"/>
	</g>
	<g>
		<rect x="1647" y="908.2" class="st13" width="76.5" height="16.4"/>
	</g>
	<g>
		<rect x="1154.7" y="723.4" class="st13" width="76.5" height="16.4"/>
	</g>
	<g>
		<rect x="1582.3" y="413.7" class="st11" width="184.8" height="16.4"/>
	</g>
	<g>
		<rect x="1154.7" y="661.4" class="st11" width="118.7" height="16.4"/>
	</g>
	<g>
		<rect x="1473.8" y="785" class="st11" width="118.7" height="16.4"/>
	</g>
	<g>
		<rect x="1320.2" y="785" class="st11" width="72.5" height="16.4"/>
	</g>
	<g>
		<rect x="1154.7" y="785" class="st12" width="143.6" height="16.4"/>
	</g>
	<g>
		<rect x="1154.7" y="846.6" class="st11" width="79.2" height="16.4"/>
	</g>
	<g>
		<rect x="1343.7" y="290.6" class="st12" width="113.4" height="16.4"/>
	</g>
	<g>
		<rect x="1343.7" y="475.3" class="st12" width="113.4" height="16.4"/>
	</g>
	<g>
		<rect x="1287" y="536.9" class="st11" width="48.5" height="16.4"/>
	</g>
	<g>
		<rect x="1238.6" y="599.4" class="st12" width="108.8" height="16.4"/>
	</g>
	<g>
		<rect x="1363.9" y="599.4" class="st12" width="150.2" height="16.4"/>
	</g>
	<g>
		<rect x="1154.7" y="537.3" class="st14" width="113.4" height="16.4"/>
	</g>
	<g>
		<rect x="1154.7" y="599.4" class="st12" width="67.3" height="16.4"/>
	</g>
	<g>
		<rect x="1358.3" y="537.3" class="st15" width="63.5" height="16.4"/>
	</g>
	<g>
		<rect x="1156.6" y="908.2" class="st15" width="63.5" height="16.4"/>
	</g>
	<g>
		<rect x="1154.3" y="413.7" class="st12" width="113.4" height="16.4"/>
	</g>
	<g>
		<rect x="1254.6" y="723.4" class="st12" width="113.4" height="16.4"/>
	</g>
	<g>
		<rect x="1255.9" y="846.6" class="st12" width="113.4" height="16.4"/>
	</g>
	<g>
		<rect x="1457.4" y="846.6" class="st12" width="113.4" height="16.4"/>
	</g>
	<g>
		<rect x="1154.3" y="475.3" class="st12" width="161.7" height="16.4"/>
	</g>
	<g>
		<rect x="1507.8" y="908.2" class="st12" width="113.4" height="16.4"/>
	</g>
	<g>
		<rect x="1487.6" y="290.6" class="st12" width="144.5" height="16.4"/>
	</g>
	<g>
		<rect x="1244.1" y="908.2" class="st12" width="144.5" height="16.4"/>
	</g>
	<g>
		<rect x="1747.8" y="908.2" class="st12" width="144.5" height="16.4"/>
	</g>
	<g>
		<rect x="1725.6" y="785" class="st12" width="144.5" height="16.4"/>
	</g>
	<g>
		<rect x="1685.3" y="475.3" class="st12" width="144.5" height="16.4"/>
	</g>
	<g>
		<rect x="1415.4" y="785" class="st15" width="31.1" height="16.4"/>
	</g>
	<g>
		<rect x="1739" y="290.6" class="st15" width="144.5" height="16.4"/>
	</g>
	<g>
		<rect x="1574.1" y="475.3" class="st15" width="84.7" height="16.4"/>
	</g>
	<g>
		<rect x="1507.8" y="724.3" class="st15" width="84.7" height="16.4"/>
	</g>
	<g>
		<rect x="1658.8" y="290.6" class="st11" width="52.9" height="16.4"/>
	</g>
	<g>
		<rect x="1487.6" y="475.3" class="st11" width="52.9" height="16.4"/>
	</g>
	<g>
		<rect x="1152.9" y="352.1" class="st12" width="82.7" height="16.4"/>
	</g>
	<g>
		<rect x="1373.7" y="661.8" class="st14" width="65.3" height="16.4"/>
	</g>
	<g>
		<rect x="1255.9" y="352.1" class="st14" width="26.7" height="16.4"/>
	</g>
	<g>
		<rect x="1592.5" y="846.6" class="st11" width="220.8" height="16.4"/>
	</g>
	<g>
		<rect x="1302.3" y="352.1" class="st15" width="27.3" height="16.4"/>
	</g>
	<g>
		<rect x="1711.7" y="352.1" class="st12" width="72.2" height="16.4"/>
	</g>
	<g>
		<rect x="1784" y="413.7" class="st15" width="72.2" height="16.4"/>
	</g>
	<g>
		<rect x="1622.7" y="785" class="st15" width="72.2" height="16.4"/>
	</g>
	<g>
		<rect x="1412.5" y="908.2" class="st15" width="72.2" height="16.4"/>
	</g>
	<g>
		<rect x="1538.9" y="352.1" class="st12" width="153.7" height="16.4"/>
	</g>
	<g>
		<rect x="1395.8" y="724.3" class="st12" width="89.8" height="16.4"/>
	</g>
	<g>
		<rect x="1390.1" y="846.6" class="st12" width="44.9" height="16.4"/>
	</g>
	<g>
		<rect x="1464.2" y="352.1" class="st14" width="52.9" height="16.4"/>
	</g>
	<g>
		<rect x="1286.2" y="413.7" class="st15" width="52.9" height="16.4"/>
	</g>
	<g>
		<rect x="1296.7" y="661.8" class="st15" width="52.9" height="16.4"/>
	</g>
	<g>
		<rect x="1351.9" y="352.1" class="st12" width="92.1" height="16.4"/>
	</g>
	<g>
		<g>
			<g>
				<path class="st16" d="M1132.7,972C1132.6,972,1132.6,972,1132.7,972C1132.9,972.1,1132.9,972.1,1132.7,972z"/>
			</g>
		</g>
	</g>
	<polygon class="st15" points="1788,157.4 1814.2,157.4 1806.2,140.8 1779.9,140.8 	"/>
	<polygon class="st15" points="1775.7,157.4 1781.9,157.4 1773.9,140.8 1767.6,140.8 	"/>
	<polygon class="st15" points="1685,137.6 1791.3,137.6 1787.8,129.2 1681.5,129.2 	"/>
	<rect x="2224.1" y="569.3" class="st12" width="83.6" height="5.9"/>
	<rect x="2224.1" y="580.3" class="st12" width="83.6" height="24.6"/>
	<rect x="2184.8" y="613.2" class="st12" width="49.3" height="3.7"/>
	<rect x="2184.8" y="618.5" class="st12" width="49.3" height="10"/>
	<rect x="2209.8" y="531.7" class="st12" width="3.7" height="69"/>
	<rect x="1140.9" y="61.3" class="st17" width="65.9" height="11.9"/>
	<rect x="1140.9" y="55.7" class="st17" width="65.9" height="2.2"/>
	<g>
		<polygon class="st15" points="1793.8,296.3 1879.4,210.8 2230.7,210.8 2230.7,206.4 1877.6,206.4 1790.8,293.2 		"/>
	</g>
	<linearGradient id="SVGID_27_" gradientUnits="userSpaceOnUse" x1="1518.3" y1="825.9435" x2="1518.3" y2="1147.1716">
		<stop  offset="0" style="stop-color:#E71467"/>
		<stop  offset="1" style="stop-color:#004A99"/>
	</linearGradient>
	<rect x="1026.7" y="988" class="st18" width="983.2" height="194.5"/>
	<g>
		<polygon class="st12" points="1250.3,491.8 1253.4,488.7 1090,325.3 780.7,325.3 780.7,329.6 1088.2,329.6 		"/>
	</g>
	<g>
		<polygon class="st13" points="1576,295.2 1579.1,292.1 1441.1,154.2 1247.1,154.2 1247.1,158.5 1439.3,158.5 		"/>
	</g>
	<polygon class="st19" points="2009.9,1182.5 2009.9,988 1652.1,988 1459.8,1180.3 	"/>
	<g>
		<g>
			<rect x="2040.1" y="93.7" class="st12" width="31" height="94.2"/>
		</g>
		<g>
			<path class="st12" d="M2173.2,139H1938c-9,0-16.3-7.3-16.3-16.3V-33.6c0-9,7.3-16.3,16.3-16.3h235.2c9,0,16.3,7.3,16.3,16.3
				v156.3C2189.5,131.7,2182.2,139,2173.2,139z"/>
		</g>
		<g>
			<rect x="1932.2" y="-39.1" class="st17" width="246.9" height="148.6"/>
		</g>
		<rect x="1985.9" y="184.3" class="st12" width="139.5" height="7.1"/>
		<rect x="2086.6" y="6" class="st20" width="79.3" height="91.7"/>
		<rect x="1992.6" y="6" class="st20" width="81.7" height="11.4"/>
		<rect x="1992.6" y="29.4" class="st20" width="81.7" height="11.4"/>
		<rect x="1992.6" y="50.5" class="st20" width="81.7" height="47.2"/>
		<rect x="1946.4" y="3.4" class="st20" width="34.7" height="94.3"/>
		<rect x="1947.2" y="-27.7" class="st20" width="219.6" height="23.6"/>
	</g>
	<g>
		<path class="st12" d="M1290.5,133.7h104.8c8.6,0,15.6-7,15.6-15.6V-43c0-8.6-7-15.6-15.6-15.6h-104.8c-8.6,0-15.6,7-15.6,15.6v161
			C1274.9,126.7,1281.9,133.7,1290.5,133.7z"/>
		<rect x="1282.4" y="-49.7" class="st17" width="121" height="157.8"/>
		<rect x="1290.5" y="-38.3" class="st20" width="105.3" height="21"/>
		<rect x="1352.5" y="-9.2" class="st20" width="43.3" height="102.9"/>
		<rect x="1290.5" y="-9.2" class="st20" width="53.9" height="11.9"/>
		<rect x="1290.5" y="11.4" class="st20" width="53.9" height="11.9"/>
		<rect x="1290.5" y="32" class="st20" width="53.9" height="11.9"/>
		<rect x="1290.5" y="52.6" class="st20" width="53.9" height="41.1"/>
	</g>
	<g>
		<path class="st12" d="M829.6,299h212V166.5c0-6.3-5.1-11.4-11.4-11.4H841.1c-6.3,0-11.4,5.1-11.4,11.4L829.6,299L829.6,299z"/>
		<rect x="835.6" y="162.7" class="st17" width="200.2" height="128.6"/>
		<path class="st12" d="M819.4,299h232.4v0.6c0,5.5-4.5,10-10,10H829.4c-5.5,0-10-4.5-10-10V299z"/>
		<rect x="843.9" y="172" class="st20" width="183.2" height="17.9"/>
		<rect x="964.3" y="200" class="st20" width="62.8" height="81.9"/>
		<rect x="893.5" y="200" class="st20" width="62.8" height="81.9"/>
		<rect x="843.9" y="200" class="st20" width="38.3" height="11.7"/>
		<rect x="843.9" y="218.1" class="st20" width="38.3" height="11.7"/>
		<rect x="843.9" y="236.2" class="st20" width="38.3" height="45.7"/>
	</g>
	<g>
		<polygon class="st12" points="909.9,505.2 862.8,477.9 862.8,495.9 792.6,495.9 792.6,514.4 862.8,514.4 862.8,532.4 		"/>
		<polygon class="st12" points="792.6,445.4 839.8,472.7 839.8,454.7 909.9,454.7 909.9,436.1 839.8,436.1 839.8,418.2 		"/>
	</g>
	<g>
		<polygon class="st12" points="1599.3,117 1563.9,96.6 1563.9,110.1 1511.4,110.1 1511.4,124 1563.9,124 1563.9,137.4 		"/>
		<polygon class="st12" points="1511.4,72.2 1546.7,92.7 1546.7,79.2 1599.3,79.2 1599.3,65.3 1546.7,65.3 1546.7,51.8 		"/>
	</g>
	<g>
		<g>
			<path class="st17" d="M2076.9,441c-4.7-0.4-9.1-2.1-12.4-5c-3.8-3.3-5.9-7.7-5.9-12.3c-0.6-9.2-3.5-18.6-5.9-25.1
				c-11.2-8.9-17.2-22.7-16.2-37c1.8-23.7,22.6-41.6,46.3-39.8s41.6,22.6,39.8,46.3c-1,12.9-7.6,24.6-18.2,32
				c-3.2,8.8-5.2,16.8-5.8,23.8c-0.1,9.5-9.1,17.2-20.2,17.1C2078,441.1,2077.5,441.1,2076.9,441z M2082.6,325.3
				c-21.8-1.7-40.9,14.7-42.5,36.5c-1,13.3,4.7,26.1,15.2,34.3l0.4,0.3l0.2,0.5c2.5,6.7,5.6,16.8,6.2,26.6v0.1
				c0,3.6,1.6,7.1,4.7,9.7c3.1,2.7,7.3,4.2,11.8,4.2c9.1,0.1,16.6-6.1,16.6-13.7v-0.1v-0.1c0.6-7.5,2.7-16.1,6.2-25.4l0.2-0.5
				l0.5-0.3c10-6.8,16.2-17.7,17.1-29.7C2120.8,346.1,2104.4,327,2082.6,325.3z"/>
		</g>
		<g>
			<polygon class="st17" points="2068.9,426.3 2063.3,379.2 2073.1,387.4 2079.1,380.6 2084.4,386.9 2093.6,379.2 2088,426.3 
				2084.5,425.9 2089,387.7 2084,391.9 2079,386 2073.4,392.2 2067.8,387.6 2072.4,425.9 			"/>
		</g>
		<g>
			
				<rect x="2063.2" y="436.8" transform="matrix(1 6.710243e-003 -6.710243e-003 1 3.0193 -13.9374)" class="st17" width="30.6" height="12.3"/>
		</g>
		<g>
			
				<rect x="2058.3" y="424.2" transform="matrix(1 6.709295e-003 -6.709295e-003 1 2.9599 -13.9359)" class="st17" width="40.5" height="19.9"/>
		</g>
	</g>
	<g>
		<path class="st21" d="M2174.6,1152.1c-0.9,6.3-38.6,32.7-46,38c-6,4.2-11.1,6.2-20.1,9.6l0,0c-20.5,5.4-148.9,43.7-148.9,43.7
			c-0.3-1.3-0.5-2.4-1.3-3.9c-4.8,1.9-9.7,3.1-12.9,4.1c-4.8,1.5-42.7,2.7-50.5,4.2s-23.3,3.9-29.6-2.1c-6.3-6,3.9-18.8,12.6-22.1
			c8.7-3.3,40.3-4.2,46-4.8c5.7-0.6,13.1-2.7,16.7-1.5c1.1,0.4,6.1-1.1,12.5-3.3c-0.2-2.3-0.2-3.8-0.2-3.8l33.7-9.7l-6.2-59.7
			c0,0,14.7-55.3,73.3-13.1c0,0,13.1,3.8,17.6,5c0.3,0.1,0.8,0.1,1.5,0c8.9-0.7,47.4-12.3,61.3-12.3c14.9,0,19.7-0.9,25.1,1.8
			C2164.5,1124.9,2175.5,1145.8,2174.6,1152.1z"/>
		<path class="st21" d="M2114.6,1245.7c-6.3,6-21.8,3.6-29.6,2.1s-45.7-2.7-50.5-4.2s-13.7-3.6-20-7.8c-0.5-0.3-1.7-0.8-3.4-1.5l0,0
			l-9.5,6.8l-132-42c-7.9-2.2-14.2-5.5-18.4-9.1c-6.9-6-45.1-31.7-46-38s10.2-27.2,15.5-29.9c5.4-2.7,10.2-1.8,25.1-1.8
			s58.3,13.4,62.8,12.3c2-0.5,6.3-2.7,10.3-4.9c4.8-2.6,9.3-5.3,9.3-5.3c64.2-28.7,71.3,18.2,71.3,18.2l-3.8,57.9
			c0,0,5.3,2.7,12.3,6l31.8,9l-4.2,3c1.8,0.6,3.1,0.8,3.6,0.7c3.6-1.2,11.1,0.9,16.7,1.5c5.7,0.6,37.4,1.5,46,4.8
			C2110.7,1226.8,2120.9,1239.7,2114.6,1245.7z"/>
		<path class="st22" d="M1918.9,1127.8c4.4,0.3,34.3,17.6,41.4,21.8c-10.8-5.6-51.7-16.9-51.7-16.9
			C1910.7,1132.2,1914.9,1130,1918.9,1127.8z"/>
		<path class="st22" d="M2072.7,1132.7c0,0-51.5,12.5-61,17.7c0.4-0.3,27.2-20.6,41.2-23.3c0,0,13.8,4.4,18.3,5.5
			C2071.5,1132.8,2072,1132.8,2072.7,1132.7L2072.7,1132.7z"/>
		<path class="st23" d="M2114.6,1245.7c-6.3,6-21.8,3.6-29.6,2.1s-45.7-2.7-50.5-4.2c-1.4-0.4-3.1-0.9-5-1.5l0,0
			c-4.7-1.4-10.6-3.3-15-6.3c-0.5-0.3-1.7-0.8-3.4-1.5l23.9-17.2l0.7-0.5c1.8,0.6,3.1,0.8,3.6,0.7c3.6-1.2,11.1,0.9,16.7,1.5
			c5.7,0.6,37.4,1.5,46,4.8C2110.7,1226.8,2120.9,1239.7,2114.6,1245.7z"/>
		<path class="st24" d="M2114.6,1245.7c-6.3,6-21.8,3.6-29.6,2.1s-45.7-2.7-50.5-4.2c-1.4-0.4-3.1-0.9-5-1.5l0,0l0,0
			c0,0,10.4-10.3,5.5-25l0.7-0.5c1.8,0.6,3.1,0.8,3.6,0.7c3.6-1.2,11.1,0.9,16.7,1.5c5.7,0.6,37.4,1.5,46,4.8
			C2110.7,1226.8,2120.9,1239.7,2114.6,1245.7z"/>
		<path class="st25" d="M1932,1141c0.1,0.2,0.1,0.3,0,0.4C1931.4,1141.8,1931.5,1141.6,1932,1141z"/>
		<path class="st26" d="M2104.7,1071.1c-0.5-1-27.7-43.8-35.1-63.4c-7.4-19.5-25.1-28.5-33.5-31.3c-3-1-8.3-2.7-13.9-4.5
			c-10.1-3.3-21.1-6.8-21.1-6.8h-34.9c0,0-12.1,4-24.9,8.5l0,0c-11.8,4.1-24.3,8.7-28.5,10.8c-8.8,4.4-23.5,35.7-26.5,39.2
			c-3,3.6-26,46.2-29.3,62.6c-2.6,12.7,72.9,50,75,54.7c2.4-2.7,13.4-13.2,13.4-13.2s-3.5-2.2-8.5-5.5c20.2,0.9,69.6-0.8,76.7-0.5
			c1.4,0.1,3,0,4.6-0.1l0,0c2.2,1.6,16.3,14.1,16.3,14.1s34.9-14.5,50.9-30.7C2108.2,1082.2,2107.3,1076.2,2104.7,1071.1z
			 M1906.5,1099.5c-7.5-9-17.8-14.4-15.2-18.4c2.6-4,24.5-41.8,24.5-41.8s11.4,24.9,14.5,37.9c3.2,12.9,2.9,18.9,1.6,22.9
			c-1.2,3.6-2.2,6.1-3.3,16.8C1919.8,1110.8,1909.9,1103.6,1906.5,1099.5z M2060.7,1095.2c-2.9,3.3-14.5,10.7-24.9,16.8
			c-0.8-7.2-2-18.6-2.1-22.7c-0.2-6.2,2.4-23.9,5.6-30.7c3.2-6.8,5.4-25.3,5.4-25.3s26.4,35.9,30.6,39.6
			C2079.3,1076.7,2070.6,1083.9,2060.7,1095.2z"/>
		<g>
			<path class="st23" d="M1987.8,869.3c0,0,27.3,4.3,23.1,47s-28.2,39.2-29.8,39.1c-1.6,0-24.2,0.8-25.9-51.3
				C1955.2,904.1,1954.4,865.6,1987.8,869.3z"/>
		</g>
		<g>
			<path class="st23" d="M2011.4,904.2c0,0,3-3.2,4.1,0s-4.1,17.6-4.3,18.3c0,0-0.5,1.3-1.3,0.6
				C2009.2,922.4,2011.4,904.2,2011.4,904.2z"/>
		</g>
		<g>
			<path class="st23" d="M1955.9,903.7c0,0-2.9-3.2-4.1,0s3.7,17.7,3.9,18.4c0,0,0.5,1.3,1.3,0.6
				C1957.7,921.9,1955.9,903.7,1955.9,903.7z"/>
		</g>
		<g>
			<path class="st27" d="M2011.4,910.8l-3.9,5.2c0,0,0.1-11.4-0.5-13.2s-1.6-7.3-2.1-8.6s-23.4-7.7-43.6,1.9c0,0,0.9,8.2-1,9
				c-1.9,0.7-1,13.4-1,13.4l-3.2-3.6c0,0-4.9-32.8-3.7-36.2c1.2-3.4,5.1-24,46.6-11.8c0,0,12.9-2.7,15.5,6.2
				C2016.9,881.9,2011.4,910.8,2011.4,910.8z"/>
		</g>
		<path class="st28" d="M1947.7,1183.6c0,0-41.7-25-60-28.9c-17.2-3.7-23.5-10.2-23.5-10.2s27.4,0,45.6,12.9
			C1922.2,1166.2,1947.7,1183.6,1947.7,1183.6z"/>
		<path class="st28" d="M1984.8,1201c0,0,72.6-38.1,102.2-46.4c17-4.7,23.5-10.2,23.5-10.2s-44.9,4.4-72.2,20.8
			C2025.4,1173.1,1984.8,1201,1984.8,1201z"/>
		<path class="st23" d="M1958.3,1239.4c-4.8,1.9-9.7,3.1-12.9,4.1c-4.8,1.5-42.7,2.7-50.5,4.2s-23.3,3.9-29.6-2.1
			c-6.3-6,3.9-18.8,12.6-22.1c8.7-3.3,40.3-4.2,46-4.8c5.7-0.6,13.1-2.7,16.7-1.5c1.1,0.4,6.1-1.1,12.5-3.3
			C1953.3,1217.8,1958.3,1239.4,1958.3,1239.4z"/>
		<path class="st21" d="M1984.8,1235.8l71.4-21.1l-14.1-4.3C2042.1,1210.4,1985,1231.1,1984.8,1235.8z"/>
		<polygon class="st28" points="1984.8,1235.8 2018.2,1225.6 1995,1239.1 		"/>
		<path class="st29" d="M1961.9,1150.5c-0.1,0-0.6-0.4-1.5-0.9C1961,1149.9,1961.5,1150.2,1961.9,1150.5z"/>
		<path class="st24" d="M1945.4,1243.6c-4.8,1.5-42.7,2.7-50.5,4.2s-23.3,3.9-29.6-2.1c-6.3-6,3.9-18.8,12.6-22.1
			c8.7-3.3,40.3-4.2,46-4.8c5.7-0.6,13.1-2.7,16.7-1.5C1940.6,1217.3,1931,1231.9,1945.4,1243.6z"/>
		<path class="st26" d="M2022.3,972c0,0-11.4,50.2-38.7,50.2c-27.2,0-42.3-48.5-42.3-48.5l0,0c12.8-4.5,24.9-8.5,24.9-8.5h34.9
			C2001.1,965.1,2012.2,968.7,2022.3,972z"/>
		<path class="st29" d="M1921.8,1144.5l-11-62.6l142.2-3.3l-9.2,61.6c0,0-45.4,16.6-60.8,26.3
			C1983.1,1166.5,1944.1,1150.5,1921.8,1144.5z"/>
		<ellipse class="st30" cx="1983.5" cy="1119.6" rx="8" ry="9.4"/>
		<path class="st23" d="M2001.5,965.3L2001.5,965.3c-1.7-3.9-0.9-22.4-0.9-22.4s-34.7-8.8-33.7-2.1c1,6.8-3,25.2-3,25.2l-17.8,6.1
			c0,0,19,51,40.8,44.4s30.1-46.2,30.1-46.2L2001.5,965.3z"/>
		<path class="st31" d="M1966.8,947.6c0,0,6.1,7.9,15.9,7.9c6.4,0,11.4-2.2,17.8-8.4c0,0-3.2,12.2-17.8,13.3
			C1982.7,960.4,1971.6,961.1,1966.8,947.6z"/>
	</g>
	<g>
		<polygon class="st12" points="1876.6,575.7 1733.9,575.7 1733.9,679.2 1733.9,700.9 1755.6,679.2 1876.6,679.2 		"/>
	</g>
	<g>
		<g>
			<path class="st32" d="M1663.3,1176.2c0,0,1.5,12.1,3.5,17.5s12.7,17.7,8.2,29.6c-4.9,12.9-26.3,0.5-35-3.5
				c-8.7-3.9-6.7-11-7.7-19.8c-0.9-8.7-5.2-9-3.6-15.1s11.1-17.9,11.1-17.9L1663.3,1176.2z"/>
		</g>
		<g>
			<g>
				<path class="st23" d="M1643.9,1160.7c0,0-5.5,7.7-5.3,7.9c0.2,0.2,23.5,14.4,25.1,9.8c1.3-3.7,1.8-9,1.8-9L1643.9,1160.7z"/>
			</g>
		</g>
		<g>
			<path class="st32" d="M1564.9,1184.8c0,0-7.1,6.2-13.5,15.8c-6.4,9.6-23.3,10.1-24.1,23.2c-0.7,13.1,23,13.5,35.5,9.2
				s14.4-17,21.9-20.2s11.5-5.8,10.9-12s-4.8-16.4-4.8-16.4s-4.7,1.5-7.4,1.8C1580.7,1186.5,1571.4,1186.6,1564.9,1184.8z"/>
		</g>
		<g>
			<path class="st33" d="M1650.4,830.5c0,0-4.8,28.4-8.6,47.2l0,0c-1.6,7.6-3,13.7-3.9,15.6c-1.1,2.4-10.1,12-21.1,23.3
				c-19.3,19.8-44.8,44.8-44.8,44.8l-10-18.9c0,0,22.6-26.5,38-44.2c7.1-8.2,12.6-14.5,13.7-15.4c3.2-2.9,6.9-31.1,12.2-54.4
				c5.2-23.3,15.7-36.2,15.7-36.2L1650.4,830.5z"/>
		</g>
		<g>
			<path class="st23" d="M1616.8,916.7c-19.3,19.8-44.8,44.8-44.8,44.8l-10-18.9c0,0,22.6-26.5,38-44.2
				C1604.8,900.7,1613.4,906.2,1616.8,916.7z"/>
		</g>
		<g>
			<path class="st23" d="M1566,1176.1l-1.1,8.7c0,0,12.4,4.4,26-0.4l0.3-7.7L1566,1176.1z"/>
		</g>
		<g>
			<path class="st33" d="M1741.7,957.7c0.7,2.5-131.1,0-131.1,0s36.5-26.5,38.8-33.6c2.4-7.1-9.3-49.6-10.8-63.5
				c-1.2-11.1-4.3-60.6,3-68.2c7.6-7.9,35.1-16.2,35.1-16.2l40.1,1.5c0,0,6.6,1.4,11.3,3.6c4.7,2.2,31.8,11.8,36.1,25.3
				c4.4,13.5-27,56.9-27,56.9s-0.1,2-0.2,5.1l0,0c-0.1,4.3-0.3,10.7-0.5,17.8c-0.2,9.1-0.4,19.1-0.4,26.4
				C1736.3,930.1,1740.9,955.1,1741.7,957.7z"/>
		</g>
		<g>
			<path class="st34" d="M1741.7,957.7c0,0,17.9,26.3,18.2,44.3c0.3,18-31.8,78.2-36.7,86.8c-14.6,25.9-54.6,81.7-54.6,81.7
				s-6.9-0.2-28.4-8.5c0,0,26.6-73.8,30-81.4c14.3-32.5,22.3-55.5,17.5-61.1s-17.9-11.2-21.7-14.4c-3.8-3.3-70,12.5-76.9,14.3
				c-17.9,4.7-9.8,35.9-5.8,49.9c6.6,23.4,12.5,108,12.5,108s-12.8,5.4-34.2,0.8c0,0-42.1-152.8-43.4-167.9
				c-1.3-15.2-2-40.2,101.6-59.3L1741.7,957.7z"/>
		</g>
		<g>
			<path class="st23" d="M1687.7,689.1c0,0-34.8-7.8-26.8,35.9c7.9,43.8,16.3,47.2,37.3,38.1s19.1-37.1,20.2-50.8
				C1719.4,698.6,1698.8,689.6,1687.7,689.1z"/>
		</g>
		<g>
			<path class="st23" d="M1678.5,787.4c0,0,15.4,16.3,39.7,1.5c0,0-5.4-35.4-2.6-52.6c2.9-17.2-31.8,26.7-31.8,26.7
				c0.5,0.2,0.8,1.9,0.8,4.2c0.1,2,0,4.5-0.4,7C1683.7,779.9,1681.9,786,1678.5,787.4z"/>
		</g>
		<g>
			<path class="st35" d="M1716.6,734.8c0,0-0.9-13.8-5.9-14.2s-5.8,5.1-5.8,5.1l-5.1,1c0,0,1.6-12.1-3.4-14.2s-32.6,6.7-36.6,3.1
				c-4-3.5-2.1-28.1,5.2-31.4c7.3-3.4,27.5-10.9,42.2-0.9c0,0,11.5-1.3,13.2,8S1719.8,727.9,1716.6,734.8z"/>
		</g>
		<g>
			<path class="st31" d="M1684.4,774.2c25.1-7.7,27-22.9,27-23.1c-8.3,14.2-26.7,16.1-26.7,16.1
				C1684.8,769.2,1684.7,771.7,1684.4,774.2z"/>
		</g>
		<g>
			<path class="st23" d="M1728.5,781.4c0,0-18.4,36.6-48.1,34.2c-29.7-2.4-5.1-39.2-3.7-39.5
				C1678.2,775.8,1707.2,768.6,1728.5,781.4z"/>
		</g>
		<g>
			<path class="st33" d="M1595.5,955.8c0,0,91,11.2,146.2,1.9l-105.4-13.2C1636.3,944.5,1635.7,947.2,1595.5,955.8z"/>
		</g>
		<g>
			<path class="st23" d="M1663.6,940.4l-6.8,3.4c0,0,1.5,10.8,5.3,14l7.6-1.9C1669.7,955.9,1668.1,944.1,1663.6,940.4z"/>
		</g>
		<g>
			<path class="st33" d="M1768.9,918.3c-1.4,1.6-19.3,8.8-39.5,16.6l0,0c-27.6,10.6-58.8,20.7-58.8,20.7l-7.1-15.2
				c0,0,32.6-17.7,54.7-30.2c10.4-5.9,18.5-10.6,19.6-11.6c3.5-3.4,4.5-8.8,1.9-18.2s-8.6-52.8-9.3-57.9
				c-0.7-5.1,1.7-18.6,14.3-19.2s19.1,2.9,19.1,2.9s3.2,1.3,5.5,32C1771.8,868.8,1772.1,914.6,1768.9,918.3z"/>
		</g>
		<g>
			<path class="st36" d="M1737.2,868.6L1737.2,868.6c-0.1,4.3-0.3,10.7-0.5,17.8c-12.4-30.3-5.2-54.5-5.1-54.9
				C1730.3,839.8,1737.1,868.2,1737.2,868.6z"/>
		</g>
		<g>
			<path class="st36" d="M1641.8,877.8L1641.8,877.8c-1.6,7.6-3,13.7-3.9,15.6c-4.2-20.4-0.4-46.6-0.4-46.6
				C1638.1,859.2,1641.8,877.8,1641.8,877.8z"/>
		</g>
		<g>
			<path class="st23" d="M1729.4,934.8L1729.4,934.8c-27.6,10.6-59.8,21-59.8,21l-6.1-15.5c0,0,32.6-17.7,54.7-30.2
				C1718.2,910.2,1726.3,914.1,1729.4,934.8z"/>
		</g>
		<g>
			<polygon class="st37" points="1661.6,956.8 1532.2,954.9 1597.6,988 			"/>
		</g>
		<g>
			<polygon class="st38" points="1597.6,988 1661.6,963.2 1661.6,956.8 1592.5,981.7 			"/>
		</g>
		<g>
			<g>
				<path class="st23" d="M1658.3,944c0,0-8.1-1.3-13.7-2.6c-4.3-1-15.1,0.4-17.8,3.2c-2.7,2.8-11.4,22.1-13.1,23.3
					c-1.6,1.2,0.8,3.9,3.7,2.5c0,0,2.7,8.5,9.2,5.3c6.6-3.2,11-10.1,14.4-11.3s23.4-7.4,23.4-7.4S1663.4,942,1658.3,944z"/>
			</g>
		</g>
		<g>
			<g>
				<path class="st23" d="M1628.8,943.3c0,0-5.2,2.5-6.5,3.6c-1.4,1.1-6.8,5.2-8.2,6.2c-1.3,1,2,3.7,11.8-0.5
					C1635.7,948.4,1628.8,943.3,1628.8,943.3z"/>
			</g>
		</g>
		<g>
			<polygon class="st38" points="1597.6,988 1559.1,883 1435,885 1471.7,981.8 			"/>
		</g>
		<g>
			
				<ellipse transform="matrix(-0.8943 0.4474 -0.4474 -0.8943 3278.46 1093.9749)" class="st14" cx="1510" cy="934.2" rx="10.5" ry="15.3"/>
		</g>
		<g>
			<path class="st23" d="M1705,719.9c0.5-3.9,8.1-5.3,8.7,0.5s-3.5,15.9-6.4,14.9C1704.5,734.3,1704.4,725.2,1705,719.9z"/>
		</g>
	</g>
	<g>
		<path class="st16" d="M1153.7,748.8c0,0-4.5,63.4,7.9,71c7.8,4.8,38.7,20.8,37.8,23.8s-17.5,26.7-17.5,26.7s-59.4-39.1-61.3-51.4
			c-1.9-12,2.9-92.8,11.1-96.5c6.1-2.8,9.3-0.5,17.1,5.2C1159.5,735.6,1153.7,748.8,1153.7,748.8z"/>
		<g>
			<g>
				<path class="st39" d="M1262,766.9l5.2-1.9c0,0-6.5-15.3-9.4-15c-3.3,0.4-7.4,1.5-7.4,1.5L1262,766.9z"/>
			</g>
		</g>
		<g>
			<g>
				<path class="st40" d="M1263.1,769.6c-0.7-0.5-11.1-20.6-11.1-20.6l-22.3,3l12.1,23.8L1263.1,769.6z"/>
			</g>
		</g>
		<g>
			<g>
				<path class="st41" d="M1146.8,1210c0,0-1.8,12.8-2.1,14.7c-0.2,1.9-20.5-1.1-20.5-1.1l-1.6-15.3
					C1122.5,1208.3,1144.2,1208.2,1146.8,1210z"/>
			</g>
		</g>
		<g>
			<g>
				<path class="st42" d="M1144.9,1223.1c0,0,6.4,7.7,12.7,11.1c6.2,3.4,16,4.7,19.7,8.2c2.7,2.5,9.7,13.3-16.2,13.1
					c-25.9-0.2-38.3,1.5-41.1-2.6c-2.8-4.2,4-30.7,4-30.7S1130.1,1224.4,1144.9,1223.1z"/>
			</g>
		</g>
		<g>
			<g>
				<path class="st41" d="M1248.5,1210c0,0-1.8,12.8-2.1,14.7c-0.2,1.9-20.5-1.1-20.5-1.1l-1.6-15.3
					C1224.2,1208.3,1245.9,1208.2,1248.5,1210z"/>
			</g>
		</g>
		<g>
			<g>
				<path class="st42" d="M1246.6,1223.1c0,0,6.4,7.7,12.7,11.1c6.2,3.4,29.1,6.1,32.8,9.6c2.7,2.5,7.1,12.6-29.3,11.7
					c-25.9-0.7-38.3,1.5-41.1-2.6c-2.8-4.2,4-30.7,4-30.7S1231.5,1224.6,1246.6,1223.1z"/>
			</g>
		</g>
		<g>
			<g>
				<path class="st42" d="M1154.1,880.5c0,0-19.1,30.3-17.7,57.8c1.4,27.4-1.7,56.7-4.6,85.3c-3.2,31.9-11.9,98.4-12.4,115.5
					s0.6,81.3,0.6,81.3l33.1-0.2c0,0,11.8-129.8,17.4-143.3c5.7-13.5,29.1-111,30-121.8C1201.6,944.2,1154.1,880.5,1154.1,880.5z"/>
			</g>
		</g>
		<g>
			<g>
				<path class="st42" d="M1254.6,884.6c0,0,7.5,74.5,9.4,91.3s0.6,89.5,1.5,100s-6.3,121.4-8.1,142.5l-36.4-0.2
					c0,0-2.5-89.7-2.5-133.3c0-43.6-11.2-94.4-24-123.1c-12.8-28.8-42.2-29.4-50-82.8C1144.5,879,1243.9,867.7,1254.6,884.6z"/>
			</g>
		</g>
		<g>
			<g>
				<path class="st23" d="M1174.2,624.8c0,0,22.7-15.2,38.7,1.1s23.8,54.5,12.4,62.2c-11.5,7.6-30.9,9.6-40.2-0.7
					c-9.2-10.4-19.1-26.2-21.5-37.7C1161.2,638.1,1168.5,629.6,1174.2,624.8z"/>
			</g>
		</g>
		<g>
			<g>
				<path class="st23" d="M1217.6,690.6c0,0-0.3,16,1.5,19.4s-33.2,3.5-33.2,3.5s-2.8-18.5-8.2-34.2
					C1172.2,663.6,1217.6,690.6,1217.6,690.6z"/>
			</g>
		</g>
		<g>
			<g>
				<path class="st43" d="M1178.5,679c0,0,3.3,3.3,12.5-0.4c9.2-3.8,17.9-19.3,21.6-21.6s3.2-4.7,3.2-4.7l3.4,3.1l4.3-0.7
					c0,0-6.6-10.5-1.8-16.5c4.8-6-14.8-35.5-43-17.5c0,0-22.1,12.1-18.1,25.3C1164.6,659.1,1171.6,673.6,1178.5,679z"/>
			</g>
		</g>
		<g>
			<g>
				<path class="st44" d="M1221.1,709.6c0,0-0.1-6.5-3.1-7.1s-32.6-3.5-36.2-2v7.6C1181.9,708,1188.8,712.3,1221.1,709.6z"/>
			</g>
		</g>
		<g>
			<g>
				<path class="st23" d="M1214,647.5c-1.1-2.1-8.3-7.2-8.9,0.2s7.1,15.4,10,13.9S1216.7,652.9,1214,647.5z"/>
			</g>
		</g>
		<g>
			<g>
				<path class="st16" d="M1338.7,786.5L1338.7,786.5C1338.9,786.6,1338.9,786.6,1338.7,786.5z"/>
			</g>
		</g>
		<g>
			<g>
				<path class="st16" d="M1264.4,718.6c-21.1-3.7-43.3-9-43.3-9l-39.3-1.6c0,0-36,7.9-50.2,14.3c-1.3,0.6-1.4,32.1-5,40.4
					l11.8,24.8c0,0,6.8,49.2,8.2,71c0.6,10-14,94.1-14,94.1s15.7,4.6,42.5,7.6s93.8-1.1,94.2-4.2c0.4-3.2-13-117.9-13.6-123.8
					c-0.9-9.1,2.6-51.2,2.6-51.2c5,6.8,29.1,36.3,42.5,50.8c7.9,8.6,36.9,23.5,43.6,26.5c14.5,6.5,37.9,21.4,38.7,19.9
					c0.7-0.9,16.3-27.4,14.5-28c-1.6-0.5-50.4-30.4-64.3-37.7c-5.1-2.7-24.9-36.7-24.9-36.7S1276,723.8,1264.4,718.6z"/>
			</g>
		</g>
		<g>
			<g>
				<path class="st43" d="M1167.7,628.7c0,0-32.5,8.7,9.5,49.1L1167.7,628.7z"/>
			</g>
		</g>
		<path class="st45" d="M1416.1,884.1c0,0-2.9,0.1-4.1-0.5c0,0-2.2-1.2-3.9-2c-0.5-0.2-1-0.4-1.3-0.5c-1.3-0.4-4.3-0.9-7.1-2.8
			c-2.8-1.9-12.1-9.5-12.1-9.5l5.1-9.1l2.1-8.8c0,0,20.6,0.7,23.4,2.1c0.3,0.1,0.5,0.3,0.8,0.5c2.3,1.5,3.4,3.5,4.5,4.4
			c0.4,0.3,4.2,3.9,4.1,5.5c-0.1,2.2-1.1,3.6-2.4,4.3c0,0-0.4,4.2-2.5,6.2c0,0-0.3,3.9-3.5,5.7
			C1419.2,879.6,1418.4,883.5,1416.1,884.1z"/>
	</g>
	<g>
		
			<ellipse transform="matrix(-0.9565 0.2919 -0.2919 -0.9565 2001.7831 1050.8406)" class="st46" cx="922.5" cy="674.7" rx="15.6" ry="19.8"/>
		<path class="st16" d="M977.5,726.4c0,0,11.6,3.6,18.2,12.8c6.6,9.1,7.7,21.9,8,28.4s2.1,31.7,2.1,31.7l-19.7,5.5L977.5,726.4z"/>
		<g>
			<path class="st42" d="M1061,1232.3c0,0,14.8,19.9,12.7,23c-2,3.2-17.6,3.6-27,0c-9.5-3.6-9.7-26.9-14-36.9
				c-1.8-4.2,2-16.6,7.4-17.5s11.3,1.7,11.3,1.7S1045.9,1216.8,1061,1232.3z"/>
		</g>
		<g>
			<g>
				<path class="st23" d="M1051.6,1202.5c0,0,3.1,8.5,4.2,16.6c0.9,6.7,10.5,20.9,10.1,22.8c-0.5,1.8-12.6,3.4-17.6-1.2
					s-8.1-18.2-9.2-26.2c-1-7.5-2.3-11.2-2.3-11.2S1046.9,1197.6,1051.6,1202.5z"/>
			</g>
		</g>
		<g>
			<path class="st42" d="M932.4,1232.7c0,0,14.2,19.6,12.2,22.7c-2,3.2-17.6,3.6-27,0c-9.5-3.6-9.7-26.9-14-36.9
				c-1.8-4.2,2-16.6,7.4-17.5s11.7,1.9,11.7,1.9S917.3,1217.1,932.4,1232.7z"/>
		</g>
		<g>
			<g>
				<path class="st23" d="M922.8,1202.9c0,0,1.1,9.2,2.9,15.8c1.8,6.5,11.5,21.4,11,23.2c-0.5,1.8-12.6,3.4-17.6-1.2
					s-8.8-18.1-9.2-26.2c-0.5-8.1,1.1-13.4,1.1-13.4S918.1,1197.9,922.8,1202.9z"/>
			</g>
		</g>
		<g>
			<g>
				<path class="st23" d="M994,879.1c0,0,12.7,59,15.6,73.8c2.9,14.8,11.1,86.8,11.9,99c0.9,12.2,13.2,58.3,12.6,62.7
					c-0.6,4.4,18.3,92.1,18.3,92.1s-6.5,5.2-13.3,0.5c-3.5-2.4-41.5-82.1-41.5-104c0-30.2-22.3-69.6-25.2-76.3
					c-26.8-62.7-21.5-81.9-25-86s-3.8,2.5-5.8,11.5s-6.4,87.1-9,97s-0.6,43.4-2,60.3c-1.5,16.9-7.8,93.3-7.8,93.3s-5,7.8-11.9,0.2
					c-1.5-1.6-12-85.1-12.3-105.2s-0.6-47.8-1.2-56.5c-5.4-83.3-18.7-95.1,2.2-154.1C938.8,777,994,879.1,994,879.1z"/>
			</g>
		</g>
		<g>
			<path class="st16" d="M908.8,862.6c0,0-36.1,50.6-20.6,158.1c0,0,85.7,11.7,131.6-13.5c0,0-19-110.9-25.9-128.1
				C987.1,861.8,908.8,862.6,908.8,862.6z"/>
		</g>
		<g>
			<polygon class="st42" points="1032.4,1216.7 1032.4,1237.5 1035.1,1237.5 1035.1,1221.4 			"/>
		</g>
		<g>
			<polygon class="st42" points="903.3,1216.7 903.3,1237.5 906,1237.5 906,1221.4 			"/>
		</g>
		<g>
			<path class="st16" d="M957.3,718.9c0,0,15.6,6.5,20.2,7.4s20.2,24,23.4,32.5c3.1,8.5,0,21.3-6.5,36.2c-6.5,15-0.4,20-3.3,34.9
				c-3,15,6.6,46.9,7.1,55.2c0.6,8.3-86.9,9.7-104.1-5.5c0,0,17.3-25.9,19.5-29.6c2.2-3.7,0.4-23.8-1.7-29
				c-2-5.2-15.6-49.2-15.6-49.2s-11.1-33.8-1.1-41.6c8.7-6.7,32.4-9.2,36.6-10.6C936.3,718.3,948.6,717.6,957.3,718.9z"/>
		</g>
		<g>
			<path class="st23" d="M963.7,703.6c0,0-0.4,3.3-0.8,7.9c-0.2,2-0.4,4.3-0.6,6.7c-0.5,6.7-1,14-0.7,17.7c0,0-13.8,13.9-29.6-16.2
				c0,0,6.6-12.4,1.6-29.2C928.7,673.7,963.7,703.6,963.7,703.6z"/>
		</g>
		<polygon class="st23" points="998.4,815.1 1000.8,820.7 995.8,817.2 		"/>
		<g>
			<g>
				<g>
					<path class="st47" d="M968.4,626.9c0,0,31,9.7,14.2,63.3c-16.8,53.5-59.2-6.2-54.7-38.8C932.2,618.7,968.4,626.9,968.4,626.9z"
						/>
				</g>
			</g>
		</g>
		<g>
			<g>
				<g>
					<path class="st46" d="M985.7,658.1c0,0-15.4,15.1-41.2,17c0,0-9.9,11.6-10.7,16.2c0,0-27-45.1,5.3-62.7
						C973.3,609.9,996.1,648.4,985.7,658.1z"/>
				</g>
			</g>
		</g>
		<g>
			<g>
				<g>
					<path class="st47" d="M944.3,674.8c-0.2-3.9-2.6-12.8-8.4-10.3c-5.8,2.5,0.4,20.5,4.2,19.4C940.1,684,944.8,684,944.3,674.8z"
						/>
				</g>
			</g>
		</g>
		<path class="st31" d="M962.9,711.5c-0.2,2-0.4,4.3-0.6,6.7l0,0c-17.9-8.9-20.7-21.6-20.8-22C955.2,711.5,962.9,711.5,962.9,711.5z
			"/>
		<path class="st48" d="M1002.5,767.1c0,0,0.8,18.8-3.4,29.6l-3.9-2C995.3,794.8,1002.5,775.9,1002.5,767.1z"/>
		<g>
			<g>
				<path class="st23" d="M935.3,828.4c0,0,7.2-4.7,8.3-5.4s5-0.5,9,0.8c3.9,1.2,8.3,2.9,9.5,3.6c0.6,0.4,1.3,0.5,1,2.3
					s-1.5,3.3-1.5,3.3s0.7,2.4-0.9,4.1c0,0,0.6,2.3-1.6,3.9c0,0,0.5,2.3-1.2,3.3c0,0-3.7,0.5-5,0.2c-2-0.4-12.2-2.8-19.4-4.7
					C933.5,839.7,930.5,837.9,935.3,828.4z"/>
			</g>
		</g>
		<g>
			<path class="st23" d="M960,826.8c0,0,18.5,4.1,18.3,5.5c-0.3,2.1-4.9,2.9-19-1C945.6,827.5,960,826.8,960,826.8z"/>
		</g>
		<path class="st16" d="M914.3,727.3c-4.2-2.5-18.2-2.3-23.7,10.9s-10,28.2-13.8,35.1s-16.9,38.3-13,42.1s11.9,8.3,23.9,11.1
			c12.4,2.9,48.3,16.3,48.3,16.3l4.6-19.5c0,0-15.8-7.5-24.9-11.2c-8.1-3.3-7.1-4.1-20.5-8.9c0,0,7.7-19.6,11.1-24.8
			C909.6,773.2,933.2,738.7,914.3,727.3z"/>
		<g>
			<path class="st49" d="M963.2,861.6l48.1-3.9c2.2-0.2,4.1-1.4,5.3-3.2l49.9-80.9c2.8-4.5-0.4-10.3-5.7-10.4l-51.6-0.5
				c-2.5,0-4.9,1.3-6.1,3.6l-46.4,85.3C954.1,856.3,957.8,862,963.2,861.6z"/>
		</g>
		<g>
			<g>
				<path class="st23" d="M1030.6,831.8c0,0,3-2.8,5.7-6.7s11.5-18.9,10.7-19.9c-0.8-0.9-13.9-1.3-16.3,0.9c-2.4,2.1,2.3,3,2.3,3
					s-7.2,0.7-6.6,2.8c0.5,2,4.8,1.5,4.8,1.5s-5.8,1.1-4.9,2.9c0.9,1.8,3.6,1.8,3.6,1.8s-5.1,0.6-4.5,2.6c0.6,1.9,8.7,3.8,7.6,5.4
					C1032.1,827.5,1030.6,831.8,1030.6,831.8z"/>
			</g>
		</g>
		<path class="st23" d="M929.7,720.3c0,0,17.4,28.3,31.1,27.9c13.8-0.3,4.4-26.2,4.4-26.2S954.7,713.7,929.7,720.3z"/>
		
			<ellipse transform="matrix(-0.7071 -0.7071 0.7071 -0.7071 1159.5156 2099.5288)" class="st50" cx="1014.6" cy="809.6" rx="7.9" ry="11.9"/>
		<path class="st46" d="M988.2,650.7c0,0,1.9,7.4-1.3,20.4c0,0,0.5-12.2-2-15.6C982.3,652.2,988.2,650.7,988.2,650.7z"/>
	</g>
</g>
</svg>
